<svg xmlns="http://www.w3.org/2000/svg" xmlns:xlink="http://www.w3.org/1999/xlink" width="1120" height="565" viewBox="0 0 1120 565"><defs><linearGradient id="a" x1="50%" x2="50%" y1="4.26%" y2="44.4%"><stop offset="0%" stop-color="#0DDEF9"/><stop offset="100%" stop-color="#FFF" stop-opacity="0"/></linearGradient><linearGradient id="b" x1="43.02%" x2="89.94%" y1="57.74%" y2="5.76%"><stop offset="0%" stop-color="#216EC1" stop-opacity="0"/><stop offset="99.88%" stop-color="#01003F"/></linearGradient><linearGradient id="c" x1="53.3%" x2="50.37%" y1=".59%" y2="44.4%"><stop offset="0%" stop-color="#FFF"/><stop offset="100%" stop-color="#FFF" stop-opacity="0"/></linearGradient><linearGradient id="d" x1="0%" y1="50%" y2="50%"><stop offset="0%" stop-color="#2E7EFF"/><stop offset="100%" stop-color="#00CFFF" stop-opacity=".9"/></linearGradient><linearGradient id="e" x1="91.61%" x2="8.81%" y1="5.86%" y2="93.69%"><stop offset="0%" stop-color="#FFF"/><stop offset="100%" stop-color="#00CFFF" stop-opacity=".9"/></linearGradient><linearGradient id="f" x1="-.43%" x2="100.43%" y1="50%" y2="50%"><stop offset="0%" stop-color="#00CFFF" stop-opacity="0"/><stop offset="100%" stop-color="#FFF" stop-opacity=".8"/></linearGradient><linearGradient id="g" x1="10.96%" x2="81.44%" y1="50%" y2="50%"><stop offset="0%" stop-color="#0041BF"/><stop offset="100%" stop-color="#00CFFF" stop-opacity=".9"/></linearGradient><linearGradient id="h" x1="50%" x2="50%" y1="4.26%" y2="44.4%"><stop offset="0%" stop-color="#0DDEF9"/><stop offset="100%" stop-color="#FFF" stop-opacity="0"/></linearGradient><linearGradient id="i" x1="43.02%" x2="89.94%" y1="57.74%" y2="5.76%"><stop offset="0%" stop-color="#216EC1" stop-opacity="0"/><stop offset="99.88%" stop-color="#216EC1"/></linearGradient><linearGradient id="j" x1="54.35%" x2="50.49%" y1=".78%" y2="44.42%"><stop offset="0%" stop-color="#FFF"/><stop offset="100%" stop-color="#FFF" stop-opacity="0"/></linearGradient><linearGradient id="k" x1="91.76%" x2="8.67%" y1="6.28%" y2="93.27%"><stop offset="0%" stop-color="#FFF"/><stop offset="100%" stop-color="#00CFFF" stop-opacity=".9"/></linearGradient><linearGradient id="l" x1="-.53%" x2="100.53%" y1="50%" y2="50%"><stop offset="0%" stop-color="#00CFFF" stop-opacity="0"/><stop offset="100%" stop-color="#FFF" stop-opacity=".8"/></linearGradient><linearGradient id="m" x1="10.96%" x2="81.44%" y1="50%" y2="50%"><stop offset="0%" stop-color="#0041BF"/><stop offset="100%" stop-color="#00CFFF" stop-opacity=".9"/></linearGradient><linearGradient id="n" x1="50%" x2="50%" y1="4.26%" y2="44.4%"><stop offset="0%" stop-color="#0DDEF9"/><stop offset="100%" stop-color="#FFF" stop-opacity="0"/></linearGradient><linearGradient id="o" x1="43.02%" x2="89.94%" y1="57.74%" y2="5.76%"><stop offset="0%" stop-color="#216EC1" stop-opacity="0"/><stop offset="99.88%" stop-color="#216EC1"/></linearGradient><linearGradient id="p" x1="54.35%" x2="50.49%" y1=".78%" y2="44.42%"><stop offset="0%" stop-color="#FFF"/><stop offset="100%" stop-color="#FFF" stop-opacity="0"/></linearGradient><linearGradient id="q" x1="0%" y1="50%" y2="50%"><stop offset="0%" stop-color="#2E7EFF"/><stop offset="100%" stop-color="#00CFFF" stop-opacity=".9"/></linearGradient><linearGradient id="r" x1="91.76%" x2="8.67%" y1="6.28%" y2="93.27%"><stop offset="0%" stop-color="#FFF"/><stop offset="100%" stop-color="#00CFFF" stop-opacity=".9"/></linearGradient><linearGradient id="s" x1="-.47%" x2="100.47%" y1="50%" y2="50%"><stop offset="0%" stop-color="#00CFFF" stop-opacity="0"/><stop offset="100%" stop-color="#FFF" stop-opacity=".8"/></linearGradient><linearGradient id="t" x1="10.96%" x2="81.44%" y1="50%" y2="50%"><stop offset="0%" stop-color="#0041BF"/><stop offset="100%" stop-color="#00CFFF" stop-opacity=".9"/></linearGradient><linearGradient id="u" x1="50%" x2="50%" y1="4.26%" y2="44.4%"><stop offset="0%" stop-color="#0DDEF9"/><stop offset="100%" stop-color="#FFF" stop-opacity="0"/></linearGradient><linearGradient id="v" x1="87.76%" x2="24.33%" y1="1.91%" y2="82.7%"><stop offset="0%" stop-color="#FFF"/><stop offset="100%" stop-color="#FFF" stop-opacity="0"/></linearGradient><linearGradient id="w" x1="50%" x2="50%" y1="60.94%" y2="-30.89%"><stop offset="0%" stop-color="#216EC1" stop-opacity="0"/><stop offset="99.88%" stop-color="#002A94"/></linearGradient><linearGradient id="x" x1="100%" x2="0%" y1="50%" y2="50%"><stop offset="0%" stop-color="#2E7EFF"/><stop offset="100%" stop-color="#00CFFF" stop-opacity=".9"/></linearGradient><linearGradient id="y" x1="73.8%" x2="12.48%" y1="36.83%" y2="70.77%"><stop offset="0%" stop-color="#FFF"/><stop offset="100%" stop-color="#00CFFF" stop-opacity=".9"/></linearGradient><linearGradient id="z" x1="100.33%" x2="-.33%" y1="50%" y2="50%"><stop offset="0%" stop-color="#FFF" stop-opacity=".8"/><stop offset="100%" stop-color="#00CFFF" stop-opacity="0"/></linearGradient><linearGradient id="A" x1="100%" x2="0%" y1="50%" y2="50%"><stop offset="0%" stop-color="#FFF"/><stop offset="100%" stop-color="#FFF" stop-opacity="0"/></linearGradient><linearGradient id="B" x1="100%" x2="0%" y1="50%" y2="50%"><stop offset="0%" stop-color="#FFF"/><stop offset="100%" stop-color="#FFF" stop-opacity="0"/></linearGradient><linearGradient id="C" x1="1.71%" x2="65.69%" y1="50%" y2="50%"><stop offset="0%" stop-color="#0041BF"/><stop offset="100%" stop-color="#00CFFF" stop-opacity=".9"/></linearGradient><linearGradient id="D" x1="11.86%" x2="71.15%" y1="51.11%" y2="49.21%"><stop offset="0%" stop-color="#216EC1" stop-opacity="0"/><stop offset="99.88%" stop-color="#002A94"/></linearGradient><linearGradient id="E" x1="9.95%" x2="124.85%" y1="66%" y2="20.1%"><stop offset="0%" stop-color="#216EC1" stop-opacity="0"/><stop offset="99.88%" stop-color="#216EC1"/></linearGradient><linearGradient id="F" x1="54.35%" x2="50.49%" y1=".78%" y2="44.42%"><stop offset="0%" stop-color="#FFF"/><stop offset="100%" stop-color="#FFF" stop-opacity="0"/></linearGradient><linearGradient id="G" x1="91.76%" x2="8.67%" y1="6.28%" y2="93.27%"><stop offset="0%" stop-color="#FFF"/><stop offset="100%" stop-color="#00CFFF" stop-opacity=".9"/></linearGradient><linearGradient id="H" x1="-.33%" x2="100.33%" y1="50%" y2="50%"><stop offset="0%" stop-color="#00CFFF" stop-opacity="0"/><stop offset="100%" stop-color="#FFF" stop-opacity=".8"/></linearGradient><linearGradient id="I" x1="10.96%" x2="81.44%" y1="50%" y2="50%"><stop offset="0%" stop-color="#0041BF"/><stop offset="100%" stop-color="#00CFFF" stop-opacity=".9"/></linearGradient><linearGradient id="J" x1="39.42%" x2="92.76%" y1="54.96%" y2="5.77%"><stop offset="0%" stop-color="#216EC1" stop-opacity="0"/><stop offset="99.88%" stop-color="#216EC1"/></linearGradient><linearGradient id="K" x1="0%" y1="50%" y2="50%"><stop offset="0%" stop-color="#FFF"/><stop offset="100%" stop-color="#FFF" stop-opacity="0"/></linearGradient><linearGradient id="L" x1="-46.89%" x2="313.1%" y1="20.83%" y2="129.19%"><stop offset="0%" stop-color="#FFF"/><stop offset="100%" stop-color="#00CFFF" stop-opacity="0"/></linearGradient><path id="M" d="M.37 31L54.1.06 83 16.66 29.33 47.63z"/><linearGradient id="O" x1="39.42%" x2="92.76%" y1="54.96%" y2="5.77%"><stop offset="0%" stop-color="#216EC1" stop-opacity="0"/><stop offset="99.88%" stop-color="#216EC1"/></linearGradient><linearGradient id="P" x1="0%" y1="50%" y2="50%"><stop offset="0%" stop-color="#FFF"/><stop offset="100%" stop-color="#FFF" stop-opacity="0"/></linearGradient><linearGradient id="Q" x1="126.54%" x2="4.05%" y1="116.46%" y2="10.1%"><stop offset="0%" stop-color="#FFF"/><stop offset="100%" stop-color="#00CFFF" stop-opacity="0"/></linearGradient><linearGradient id="R" x1="82.76%" x2="28.56%" y1=".58%" y2="82.33%"><stop offset="0%" stop-color="#FFF"/><stop offset="100%" stop-color="#94F1FF" stop-opacity=".1"/></linearGradient><linearGradient id="S" x1="101.51%" x2="-6.1%" y1="12.97%" y2="90.42%"><stop offset="0%" stop-color="#FC9BB0"/><stop offset="100%" stop-color="#FD6F8D"/></linearGradient><linearGradient id="T" x1="95.79%" x2="-3.61%" y1="7.45%" y2="101.72%"><stop offset="0%" stop-color="#FC9BB0"/><stop offset="100%" stop-color="#FD6F8D"/></linearGradient><linearGradient id="U" x1="16.19%" x2="60.88%" y1="27.32%" y2="56.94%"><stop offset="0%" stop-color="#FFF"/><stop offset="100%" stop-color="#00CFFF" stop-opacity=".9"/></linearGradient><linearGradient id="V" x1="126.44%" x2="4.11%" y1="117.9%" y2="9.23%"><stop offset="0%" stop-color="#FFF"/><stop offset="100%" stop-color="#00CFFF" stop-opacity="0"/></linearGradient><linearGradient id="W" x1="126.44%" x2="4.11%" y1="117.9%" y2="9.23%"><stop offset="0%" stop-color="#FFF"/><stop offset="100%" stop-color="#00CFFF" stop-opacity="0"/></linearGradient><linearGradient id="X" x1="126.44%" x2="4.11%" y1="117.9%" y2="9.23%"><stop offset="0%" stop-color="#FFF"/><stop offset="100%" stop-color="#00CFFF" stop-opacity="0"/></linearGradient><linearGradient id="Y" x1="126.44%" x2="4.11%" y1="117.9%" y2="9.23%"><stop offset="0%" stop-color="#FFF"/><stop offset="100%" stop-color="#00CFFF" stop-opacity="0"/></linearGradient><linearGradient id="Z" x1="-26.54%" x2="95.95%" y1="116.46%" y2="10.1%"><stop offset="0%" stop-color="#FFF"/><stop offset="100%" stop-color="#00CFFF" stop-opacity="0"/></linearGradient><linearGradient id="aa" x1="-26.54%" x2="95.95%" y1="116.47%" y2="10.1%"><stop offset="0%" stop-color="#FFF"/><stop offset="100%" stop-color="#00CFFF" stop-opacity="0"/></linearGradient><linearGradient id="ab" x1="-26.54%" x2="95.95%" y1="116.47%" y2="10.1%"><stop offset="0%" stop-color="#FFF"/><stop offset="100%" stop-color="#00CFFF" stop-opacity="0"/></linearGradient><linearGradient id="ac" x1="65%" x2="45.98%" y1="-19.04%" y2="68.52%"><stop offset="0%" stop-color="#162B93"/><stop offset="99.87%" stop-color="#162B93" stop-opacity="0"/></linearGradient><path id="ad" d="M.35.41h70.51v127.23H.35z"/><linearGradient id="af" x1="84.93%" x2="38.58%" y1="-83.08%" y2="93.52%"><stop offset="0%" stop-color="#FFF"/><stop offset="100%" stop-color="#FFF" stop-opacity="0"/></linearGradient><linearGradient id="ag" x1="50%" x2="50%" y1="-126.26%" y2="212.16%"><stop offset="0%" stop-color="#FFF"/><stop offset="100%" stop-color="#FFF" stop-opacity="0"/></linearGradient><linearGradient id="ah" x1="50%" x2="50%" y1="-126.26%" y2="212.17%"><stop offset="0%" stop-color="#FFF"/><stop offset="100%" stop-color="#FFF" stop-opacity="0"/></linearGradient><linearGradient id="ai" x1="50%" x2="50%" y1="-126.26%" y2="212.17%"><stop offset="0%" stop-color="#FFF"/><stop offset="100%" stop-color="#FFF" stop-opacity="0"/></linearGradient><linearGradient id="aj" x1="50%" x2="50%" y1="-126.25%" y2="212.18%"><stop offset="0%" stop-color="#FFF"/><stop offset="100%" stop-color="#FFF" stop-opacity="0"/></linearGradient><linearGradient id="ak" x1="50%" x2="50%" y1="-126.26%" y2="212.17%"><stop offset="0%" stop-color="#FFF"/><stop offset="100%" stop-color="#FFF" stop-opacity="0"/></linearGradient><linearGradient id="al" x1="50%" x2="50%" y1="-126.27%" y2="212.16%"><stop offset="0%" stop-color="#FFF"/><stop offset="100%" stop-color="#FFF" stop-opacity="0"/></linearGradient><linearGradient id="am" x1="50%" x2="50%" y1="-126.26%" y2="212.17%"><stop offset="0%" stop-color="#FFF"/><stop offset="100%" stop-color="#FFF" stop-opacity="0"/></linearGradient><linearGradient id="an" x1="50%" x2="50%" y1="-126.26%" y2="212.17%"><stop offset="0%" stop-color="#FFF"/><stop offset="100%" stop-color="#FFF" stop-opacity="0"/></linearGradient><linearGradient id="ao" x1="50%" x2="50%" y1="-126.25%" y2="212.17%"><stop offset="0%" stop-color="#FFF"/><stop offset="100%" stop-color="#FFF" stop-opacity="0"/></linearGradient><linearGradient id="ap" x1="50%" x2="50%" y1="-126.26%" y2="212.17%"><stop offset="0%" stop-color="#FFF"/><stop offset="100%" stop-color="#FFF" stop-opacity="0"/></linearGradient><linearGradient id="aq" x1="50%" x2="50%" y1="-126.26%" y2="212.16%"><stop offset="0%" stop-color="#FFF"/><stop offset="100%" stop-color="#FFF" stop-opacity="0"/></linearGradient><linearGradient id="ar" x1="50%" x2="50%" y1="-126.27%" y2="212.16%"><stop offset="0%" stop-color="#FFF"/><stop offset="100%" stop-color="#FFF" stop-opacity="0"/></linearGradient><linearGradient id="as" x1="50%" x2="50%" y1="-126.27%" y2="212.16%"><stop offset="0%" stop-color="#FFF"/><stop offset="100%" stop-color="#FFF" stop-opacity="0"/></linearGradient><linearGradient id="at" x1="50%" x2="50%" y1="-126.26%" y2="212.17%"><stop offset="0%" stop-color="#FFF"/><stop offset="100%" stop-color="#FFF" stop-opacity="0"/></linearGradient><linearGradient id="au" x1="50%" x2="50%" y1="-126.27%" y2="212.16%"><stop offset="0%" stop-color="#FFF"/><stop offset="100%" stop-color="#FFF" stop-opacity="0"/></linearGradient><linearGradient id="av" x1="50%" x2="50%" y1="-126.26%" y2="212.16%"><stop offset="0%" stop-color="#162B93"/><stop offset="99.87%" stop-color="#162B93" stop-opacity="0"/></linearGradient><linearGradient id="aw" x1="134.9%" x2="40.03%" y1="-151.28%" y2="71.61%"><stop offset="0%" stop-color="#FFF"/><stop offset="100%" stop-color="#FFF" stop-opacity="0"/></linearGradient><linearGradient id="ax" x1="56.8%" x2="140.18%" y1="46.51%" y2="3.79%"><stop offset="0%" stop-color="#00CFFF" stop-opacity="0"/><stop offset="100%" stop-color="#FFF" stop-opacity=".8"/></linearGradient><linearGradient id="ay" x1="65%" x2="45.98%" y1="-19.04%" y2="68.52%"><stop offset="0%" stop-color="#162B93"/><stop offset="99.87%" stop-color="#162B93" stop-opacity="0"/></linearGradient><linearGradient id="az" x1="56.8%" x2="140.18%" y1="46.51%" y2="3.79%"><stop offset="0%" stop-color="#00CFFF" stop-opacity="0"/><stop offset="100%" stop-color="#FFF" stop-opacity=".8"/></linearGradient><linearGradient id="aA" x1="84.93%" x2="38.58%" y1="-83.08%" y2="93.52%"><stop offset="0%" stop-color="#FFF"/><stop offset="100%" stop-color="#FFF" stop-opacity="0"/></linearGradient><linearGradient id="aB" x1="50%" x2="50%" y1="-126.26%" y2="212.16%"><stop offset="0%" stop-color="#FFF"/><stop offset="100%" stop-color="#FFF" stop-opacity="0"/></linearGradient><linearGradient id="aC" x1="50%" x2="50%" y1="-126.26%" y2="212.17%"><stop offset="0%" stop-color="#FFF"/><stop offset="100%" stop-color="#FFF" stop-opacity="0"/></linearGradient><linearGradient id="aD" x1="50%" x2="50%" y1="-126.26%" y2="212.17%"><stop offset="0%" stop-color="#FFF"/><stop offset="100%" stop-color="#FFF" stop-opacity="0"/></linearGradient><linearGradient id="aE" x1="50%" x2="50%" y1="-126.26%" y2="212.16%"><stop offset="0%" stop-color="#FFF"/><stop offset="100%" stop-color="#FFF" stop-opacity="0"/></linearGradient><linearGradient id="aF" x1="50%" x2="50%" y1="-126.26%" y2="212.17%"><stop offset="0%" stop-color="#FFF"/><stop offset="100%" stop-color="#FFF" stop-opacity="0"/></linearGradient><linearGradient id="aG" x1="50%" x2="50%" y1="-126.26%" y2="212.16%"><stop offset="0%" stop-color="#FFF"/><stop offset="100%" stop-color="#FFF" stop-opacity="0"/></linearGradient><linearGradient id="aH" x1="50%" x2="50%" y1="-126.26%" y2="212.17%"><stop offset="0%" stop-color="#FFF"/><stop offset="100%" stop-color="#FFF" stop-opacity="0"/></linearGradient><linearGradient id="aI" x1="50%" x2="50%" y1="-126.26%" y2="212.16%"><stop offset="0%" stop-color="#FFF"/><stop offset="100%" stop-color="#FFF" stop-opacity="0"/></linearGradient><linearGradient id="aJ" x1="50%" x2="50%" y1="-126.26%" y2="212.17%"><stop offset="0%" stop-color="#FFF"/><stop offset="100%" stop-color="#FFF" stop-opacity="0"/></linearGradient><linearGradient id="aK" x1="50%" x2="50%" y1="-126.25%" y2="212.17%"><stop offset="0%" stop-color="#FFF"/><stop offset="100%" stop-color="#FFF" stop-opacity="0"/></linearGradient><linearGradient id="aL" x1="50%" x2="50%" y1="-126.26%" y2="212.17%"><stop offset="0%" stop-color="#FFF"/><stop offset="100%" stop-color="#FFF" stop-opacity="0"/></linearGradient><linearGradient id="aM" x1="50%" x2="50%" y1="-126.26%" y2="212.17%"><stop offset="0%" stop-color="#FFF"/><stop offset="100%" stop-color="#FFF" stop-opacity="0"/></linearGradient><linearGradient id="aN" x1="50%" x2="50%" y1="-126.27%" y2="212.16%"><stop offset="0%" stop-color="#FFF"/><stop offset="100%" stop-color="#FFF" stop-opacity="0"/></linearGradient><linearGradient id="aO" x1="50%" x2="50%" y1="-126.26%" y2="212.17%"><stop offset="0%" stop-color="#FFF"/><stop offset="100%" stop-color="#FFF" stop-opacity="0"/></linearGradient><linearGradient id="aP" x1="50%" x2="50%" y1="-126.26%" y2="212.16%"><stop offset="0%" stop-color="#162B93"/><stop offset="99.87%" stop-color="#162B93" stop-opacity="0"/></linearGradient><linearGradient id="aQ" x1="134.9%" x2="40.03%" y1="-151.28%" y2="71.61%"><stop offset="0%" stop-color="#FFF"/><stop offset="100%" stop-color="#FFF" stop-opacity="0"/></linearGradient><linearGradient id="aR" x1="17.24%" x2="71.44%" y1=".58%" y2="82.33%"><stop offset="0%" stop-color="#FFF"/><stop offset="100%" stop-color="#94F1FF" stop-opacity=".1"/></linearGradient><linearGradient id="aS" x1="-.72%" x2="106.89%" y1="13.52%" y2="90.99%"><stop offset="0%" stop-color="#FC9BB0"/><stop offset="100%" stop-color="#FD6F8D"/></linearGradient><linearGradient id="aT" x1="3.93%" x2="103.34%" y1="7.2%" y2="101.49%"><stop offset="0%" stop-color="#FC9BB0"/><stop offset="100%" stop-color="#FD6F8D"/></linearGradient><linearGradient id="aU" x1="83.81%" x2="39.12%" y1="27.32%" y2="56.94%"><stop offset="0%" stop-color="#FFF"/><stop offset="100%" stop-color="#00CFFF" stop-opacity=".9"/></linearGradient><linearGradient id="aV" x1="5.52%" x2="133.13%" y1="66.17%" y2="19.79%"><stop offset="0%" stop-color="#216EC1" stop-opacity="0"/><stop offset="99.88%" stop-color="#216EC1"/></linearGradient><linearGradient id="aW" x1="72.19%" x2="45.93%" y1="13.94%" y2="56.62%"><stop offset="0%" stop-color="#FFF"/><stop offset="100%" stop-color="#00CFFF" stop-opacity=".9"/></linearGradient><linearGradient id="aX" x1="-38.07%" x2="73.1%" y1="98.56%" y2="37.26%"><stop offset="0%" stop-color="#0041BF"/><stop offset="100%" stop-color="#00CFFF" stop-opacity=".9"/></linearGradient><linearGradient id="aY" x1="-38.07%" x2="73.1%" y1="98.56%" y2="37.26%"><stop offset="0%" stop-color="#0041BF"/><stop offset="100%" stop-color="#00CFFF" stop-opacity=".9"/></linearGradient><linearGradient id="aZ" x1="39.42%" x2="92.76%" y1="54.96%" y2="5.78%"><stop offset="0%" stop-color="#216EC1" stop-opacity="0"/><stop offset="99.88%" stop-color="#216EC1"/></linearGradient><linearGradient id="ba" x1="0%" y1="50%" y2="50%"><stop offset="0%" stop-color="#FFF"/><stop offset="100%" stop-color="#FFF" stop-opacity="0"/></linearGradient><linearGradient id="bb" x1="-46.89%" x2="313.1%" y1="20.84%" y2="129.19%"><stop offset="0%" stop-color="#FFF"/><stop offset="100%" stop-color="#00CFFF" stop-opacity="0"/></linearGradient><linearGradient id="bc" x1="90.69%" x2="20.2%" y1="84.4%" y2="38.49%"><stop offset="0%" stop-color="#162B93"/><stop offset="100%" stop-color="#162B93" stop-opacity="0"/></linearGradient><linearGradient id="bd" x1="-74.01%" x2="87.98%" y1="49.26%" y2="50.33%"><stop offset="0%" stop-color="#FFF"/><stop offset="100%" stop-color="#FFF" stop-opacity="0"/></linearGradient><linearGradient id="be" x1="86.94%" x2="-4.75%" y1="11.42%" y2="107.17%"><stop offset="0%" stop-color="#FFF"/><stop offset="100%" stop-color="#94F1FF" stop-opacity=".1"/></linearGradient><linearGradient id="bf" x1="-1.04%" x2="67.88%" y1="143.19%" y2="17.36%"><stop offset="0%" stop-color="#216EC1" stop-opacity="0"/><stop offset="99.88%" stop-color="#002A94"/></linearGradient><linearGradient id="bg" x1="-537.94%" x2="-514.47%" y1="50%" y2="50%"><stop offset="0%" stop-color="#216EC1" stop-opacity="0"/><stop offset="99.88%" stop-color="#002A94"/></linearGradient><linearGradient id="bh" x1="-247.09%" x2="-236.31%" y1="50%" y2="50%"><stop offset="0%" stop-color="#216EC1" stop-opacity="0"/><stop offset="99.88%" stop-color="#002A94"/></linearGradient><linearGradient id="bi" x1="-651.67%" x2="-628.2%" y1="50%" y2="50%"><stop offset="0%" stop-color="#216EC1" stop-opacity="0"/><stop offset="99.88%" stop-color="#002A94"/></linearGradient><linearGradient id="bj" x1="-765.42%" x2="-741.95%" y1="50%" y2="50%"><stop offset="0%" stop-color="#216EC1" stop-opacity="0"/><stop offset="99.88%" stop-color="#002A94"/></linearGradient><linearGradient id="bk" x1="-839.82%" x2="-655.81%" y1="-18.64%" y2="-4.44%"><stop offset="0%" stop-color="#216EC1" stop-opacity="0"/><stop offset="99.88%" stop-color="#002A94"/></linearGradient><linearGradient id="bl" x1="-784.94%" x2="-600.94%" y1="-14.4%" y2="-.21%"><stop offset="0%" stop-color="#216EC1" stop-opacity="0"/><stop offset="99.88%" stop-color="#002A94"/></linearGradient><linearGradient id="bm" x1="92.8%" x2="4.57%" y1="-84.35%" y2="155.22%"><stop offset="0%" stop-color="#FFF"/><stop offset="100%" stop-color="#FFF" stop-opacity="0"/></linearGradient><linearGradient id="bn" x1="105.35%" x2="41.95%" y1="-99.27%" y2="106.61%"><stop offset="0%" stop-color="#FFF"/><stop offset="100%" stop-color="#FFF" stop-opacity="0"/></linearGradient><linearGradient id="bo" x1="89.72%" x2="23.98%" y1="-106.33%" y2="99.33%"><stop offset="0%" stop-color="#FFF"/><stop offset="100%" stop-color="#FFF" stop-opacity="0"/></linearGradient><linearGradient id="bp" x1="50%" x2="50%" y1="39.73%" y2="118.69%"><stop offset="0%" stop-color="#FFF"/><stop offset="100%" stop-color="#FFF" stop-opacity="0"/></linearGradient><linearGradient id="bq" x1="50%" x2="50%" y1="24.77%" y2="103.73%"><stop offset="0%" stop-color="#FFF"/><stop offset="100%" stop-color="#FFF" stop-opacity="0"/></linearGradient><linearGradient id="br" x1="50%" x2="50%" y1="9.8%" y2="88.76%"><stop offset="0%" stop-color="#FFF"/><stop offset="100%" stop-color="#FFF" stop-opacity="0"/></linearGradient><linearGradient id="bs" x1="50%" x2="50%" y1="-5.16%" y2="73.79%"><stop offset="0%" stop-color="#FFF"/><stop offset="100%" stop-color="#FFF" stop-opacity="0"/></linearGradient><path id="bt" d="M15.7 79.11l-2.74 12.25 13.29-6.15 14.66 8.47 122.92-62.84L119.75.3l-.07.04L.43 70.43z"/><linearGradient id="bv" x1="8.46%" x2="43.75%" y1="90.29%" y2="56.06%"><stop offset="0%" stop-color="#FFF"/><stop offset="100%" stop-color="#00CFFF" stop-opacity="0"/></linearGradient><linearGradient id="bw" x1="2.52%" x2="37.81%" y1="96.05%" y2="61.82%"><stop offset="0%" stop-color="#FFF"/><stop offset="100%" stop-color="#00CFFF" stop-opacity="0"/></linearGradient><linearGradient id="bx" x1="-10.67%" x2="71.28%" y1="127.68%" y2="32.84%"><stop offset="0%" stop-color="#0041BF"/><stop offset="100%" stop-color="#00CFFF" stop-opacity=".9"/></linearGradient><linearGradient id="by" x1="-26.44%" x2="95.89%" y1="117.9%" y2="9.23%"><stop offset="0%" stop-color="#FFF"/><stop offset="100%" stop-color="#00CFFF" stop-opacity="0"/></linearGradient><linearGradient id="bz" x1="43.02%" x2="89.93%" y1="57.74%" y2="5.76%"><stop offset="0%" stop-color="#216EC1" stop-opacity="0"/><stop offset="99.88%" stop-color="#002B7F"/></linearGradient><linearGradient id="bA" x1="54.35%" x2="50.49%" y1=".78%" y2="44.42%"><stop offset="0%" stop-color="#FFF"/><stop offset="100%" stop-color="#FFF" stop-opacity="0"/></linearGradient><linearGradient id="bB" x1="0%" y1="50%" y2="50%"><stop offset="0%" stop-color="#2E7EFF"/><stop offset="100%" stop-color="#00CFFF" stop-opacity=".9"/></linearGradient><linearGradient id="bC" x1="91.76%" x2="8.67%" y1="6.28%" y2="93.27%"><stop offset="0%" stop-color="#FFF"/><stop offset="100%" stop-color="#00CFFF" stop-opacity=".9"/></linearGradient><linearGradient id="bD" x1="-.61%" x2="100.61%" y1="50%" y2="50%"><stop offset="0%" stop-color="#00CFFF" stop-opacity="0"/><stop offset="100%" stop-color="#FFF" stop-opacity=".8"/></linearGradient><linearGradient id="bE" x1="10.96%" x2="81.44%" y1="50%" y2="50%"><stop offset="0%" stop-color="#0041BF"/><stop offset="100%" stop-color="#00CFFF" stop-opacity=".9"/></linearGradient><linearGradient id="bF" x1="54.35%" x2="50.49%" y1=".78%" y2="44.42%"><stop offset="0%" stop-color="#FFF"/><stop offset="100%" stop-color="#FFF" stop-opacity="0"/></linearGradient><linearGradient id="bG" x1="34.9%" x2="120.08%" y1="28.68%" y2="148.86%"><stop offset="0%" stop-color="#0041BF" stop-opacity=".1"/><stop offset="100%" stop-color="#00CFFF" stop-opacity=".9"/></linearGradient><linearGradient id="bH" x1="-38.92%" x2="154.9%" y1="-75.35%" y2="197.8%"><stop offset="0%" stop-color="#0041BF"/><stop offset="100%" stop-color="#00CFFF" stop-opacity=".9"/></linearGradient><linearGradient id="bI" x1="36.04%" x2="6.47%" y1="50%" y2="50%"><stop offset="0%" stop-color="#FFF"/><stop offset="100%" stop-color="#2D9AC0" stop-opacity=".9"/></linearGradient><linearGradient id="bJ" x1="72.37%" x2="44.94%" y1="163.99%" y2="24.23%"><stop offset="0%" stop-color="#0041BF" stop-opacity=".1"/><stop offset="100%" stop-color="#00CFFF" stop-opacity=".9"/></linearGradient><linearGradient id="bK" x1="57.41%" x2="27.3%" y1="117.22%" y2="-156.1%"><stop offset="0%" stop-color="#0041BF" stop-opacity=".1"/><stop offset="100%" stop-color="#00CFFF" stop-opacity=".9"/></linearGradient><linearGradient id="bL" x1="98.06%" x2="32.55%" y1="446.09%" y2="-93.89%"><stop offset="0%" stop-color="#0041BF" stop-opacity=".1"/><stop offset="100%" stop-color="#00CFFF" stop-opacity=".9"/></linearGradient><linearGradient id="bM" x1="70.57%" x2="5.06%" y1="219.57%" y2="-320.42%"><stop offset="0%" stop-color="#0041BF" stop-opacity=".1"/><stop offset="100%" stop-color="#00CFFF" stop-opacity=".9"/></linearGradient><linearGradient id="bN" x1="26.28%" x2="92.44%" y1="14.2%" y2="114.09%"><stop offset="0%" stop-color="#00CFFF" stop-opacity="0"/><stop offset="100%" stop-color="#FFF" stop-opacity=".8"/></linearGradient><linearGradient id="bO" x1="57.51%" x2="35.72%" y1="94.46%" y2="-34.55%"><stop offset="0%" stop-color="#0041BF" stop-opacity=".1"/><stop offset="100%" stop-color="#00CFFF" stop-opacity=".9"/></linearGradient><linearGradient id="bP" x1="38.08%" x2="61.46%" y1="26.63%" y2="75.18%"><stop offset="0%" stop-color="#83AFF6"/><stop offset="100%" stop-color="#3B79C9"/></linearGradient><linearGradient id="bQ" x1="-4.06%" x2="101.97%" y1="45.67%" y2="54.16%"><stop offset="0%" stop-color="#83AFF6"/><stop offset="100%" stop-color="#3B79C9"/></linearGradient><linearGradient id="bR" x1="46.13%" x2="52.18%" y1="11.82%" y2="68.35%"><stop offset="0%" stop-color="#83AFF6"/><stop offset="100%" stop-color="#3B79C9"/></linearGradient><linearGradient id="bS" x1="78.02%" x2="9.32%" y1="-9.38%" y2="136.32%"><stop offset="0%" stop-color="#83AFF6"/><stop offset="100%" stop-color="#3B79C9"/></linearGradient><linearGradient id="bT" x1="57.2%" x2="42.81%" y1="94.63%" y2="5.37%"><stop offset="0%" stop-color="#0041BF" stop-opacity=".1"/><stop offset="100%" stop-color="#00CFFF" stop-opacity=".9"/></linearGradient><linearGradient id="bU" x1="75.87%" x2="25.87%" y1="210.56%" y2="-99.77%"><stop offset="0%" stop-color="#0041BF" stop-opacity=".1"/><stop offset="100%" stop-color="#00CFFF" stop-opacity=".9"/></linearGradient><linearGradient id="bV" x1="57.18%" x2="42.83%" y1="94.52%" y2="5.49%"><stop offset="0%" stop-color="#0041BF" stop-opacity=".1"/><stop offset="100%" stop-color="#00CFFF" stop-opacity=".9"/></linearGradient><linearGradient id="bW" x1="75.87%" x2="25.87%" y1="210.56%" y2="-99.77%"><stop offset="0%" stop-color="#0041BF" stop-opacity=".1"/><stop offset="100%" stop-color="#00CFFF" stop-opacity=".9"/></linearGradient><linearGradient id="bX" x1="48.98%" x2="50.94%" y1="-101.76%" y2="191.22%"><stop offset="0%" stop-color="#0041BF" stop-opacity=".1"/><stop offset="100%" stop-color="#00CFFF" stop-opacity=".9"/></linearGradient><linearGradient id="bY" x1="677.52%" x2="180.42%" y1="-376.77%" y2="-38.71%"><stop offset="0%" stop-color="#0041BF" stop-opacity=".1"/><stop offset="100%" stop-color="#00CFFF" stop-opacity=".9"/></linearGradient><linearGradient id="bZ" x1="624.92%" x2="127.78%" y1="-340.98%" y2="-2.92%"><stop offset="0%" stop-color="#0041BF" stop-opacity=".1"/><stop offset="100%" stop-color="#00CFFF" stop-opacity=".9"/></linearGradient></defs><g fill="none" fill-rule="evenodd"><g opacity=".1"><path fill="url(#a)" fill-rule="nonzero" d="M182.75 50.68l-.23 164.5-112.7 64.43L105.04 7.87z" opacity=".8" transform="translate(160 172)"/><g fill-rule="nonzero"><path fill="#162B93" d="M160.54 246.57l112.75-64.43 69.46 40.54-112.7 64.43z" opacity=".8"/><path fill="url(#b)" d="M.3 229.2L.54 64.7l69.5 40.54-.22 164.5z" transform="translate(160 181.87)"/><path fill="url(#c)" d="M182.75 40.8l-.23 164.51-112.7 64.43.23-164.5z" opacity=".8" transform="translate(160 181.87)"/></g><path fill="url(#d)" fill-rule="nonzero" d="M8.66 79.3l61.39 35.81L175 55.12l-61.93-35.95z" transform="translate(160 172)"/><path fill="#1537A0" fill-rule="nonzero" d="M230.1 278.25L160.39 238v-1.11l69.73 40.25z"/><path fill="url(#e)" fill-rule="nonzero" d="M70.1 105.13l112.63-64.75v1.12L70.1 106.25z" transform="translate(160 172)"/><path stroke="url(#f)" stroke-linejoin="round" stroke-width="1.56" d="M.95 74.56l112.31-64.18 69.08 40.31-112.27 64.18z" transform="translate(160 172)"/><path fill="url(#g)" fill-rule="nonzero" d="M113.07.03l69.66 40.44-112.55 64.76L.38 64.97z" opacity=".9" transform="translate(160 172)"/></g><g opacity=".1"><path fill="url(#h)" fill-rule="nonzero" d="M147.58 50.75l-.23 164.34-77.63 44.55L70 7.98z" opacity=".8" transform="translate(781 79)"/><g fill-rule="nonzero"><path fill="#162B93" d="M781.57 133.8l77.67-44.55 69.34 40.5-77.63 44.55z" opacity=".8"/><path fill="url(#i)" d="M.33 209.28L.57 44.94l69.38 40.5-.23 164.34z" transform="translate(781 88.86)"/><path fill="url(#j)" d="M147.58 40.89l-.23 164.34-77.63 44.55.23-164.34z" opacity=".8" transform="translate(781 88.86)"/></g><path fill="url(#d)" fill-rule="nonzero" d="M8.67 59.54L69.95 95.3l69.9-40.11-61.83-35.91z" transform="translate(781 79)"/><path fill="#1537A0" fill-rule="nonzero" d="M851 165.45l-69.6-40.22v-1.11l69.6 40.21z"/><path fill="url(#k)" fill-rule="nonzero" d="M70 85.33l77.55-44.87v1.12L70.01 86.45z" transform="translate(781 79)"/><path stroke="url(#l)" stroke-linejoin="round" stroke-width="1.56" d="M.98 54.8l77.24-44.31 68.95 40.27-77.2 44.3z" transform="translate(781 79)"/><path fill="url(#m)" fill-rule="nonzero" d="M78.02.15l69.53 40.4-77.47 44.88L.4 45.2z" opacity=".9" transform="translate(781 79)"/></g><g opacity=".3"><path fill="url(#n)" fill-rule="nonzero" d="M166.98 57.62l-.26 185.6-87.95 50.3.33-284.2z" opacity=".8" transform="translate(511 122)"/><g fill-rule="nonzero"><path fill="#162B93" d="M511.44 184.2l87.99-50.32 78.55 45.74-87.94 50.31z" opacity=".8"/><path fill="url(#o)" d="M.17 236.38L.44 50.8l78.6 45.74-.27 185.59z" transform="translate(511 133.4)"/><path fill="url(#p)" d="M166.98 46.21l-.26 185.6-87.95 50.31.27-185.6z" opacity=".8" transform="translate(511 133.4)"/></g><path fill="url(#q)" fill-rule="nonzero" d="M9.62 67.54l69.42 40.4 79.18-45.3-70.04-40.56z" opacity=".1" transform="translate(511 122)"/><path fill="#1537A0" fill-rule="nonzero" d="M590.1 219.94l-78.85-45.42v-1.26l78.85 45.42z"/><path fill="url(#r)" fill-rule="nonzero" d="M79.1 96.68L166.95 46v1.26L79.1 97.94z" transform="translate(511 122)"/><path stroke="url(#s)" stroke-linejoin="round" stroke-width="1.56" d="M.9 62.18l87.5-50.03 78.11 45.48-87.45 50.04z" transform="translate(511 122)"/><path fill="url(#t)" fill-rule="nonzero" d="M88.18.48l78.77 45.62-87.77 50.68L.25 51.36z" opacity=".9" transform="translate(511 122)"/></g><path fill="url(#u)" fill-rule="nonzero" d="M226.21 82.27l-.38 344.26-112.6 64.48.27-474.02z" opacity=".8" transform="translate(329 91)"/><g fill-rule="nonzero"><path fill="#162B93" d="M455.41 245.5l-126.14-72.23 112.67-65.67 126.22 72.24z" opacity=".8"/><path fill="url(#v)" d="M126.79 482.17l-.38-344.26 112.75-65.67.37 344.27z" opacity=".8" transform="translate(329 107.6)"/><path fill="url(#w)" d="M126.41 137.91l.38 344.26L.64 409.93.27 65.67z" transform="translate(329 107.6)"/></g><path fill="url(#x)" fill-rule="nonzero" d="M225.99 96.52L126.4 154.5 12.84 89.47 113.3 31.24z" opacity=".1" transform="translate(329 91)"/><path fill="url(#y)" fill-rule="nonzero" d="M126.32 138.35l113.1-65.2v1.8l-113.1 65.2z" transform="translate(329 91)"/><path fill="#1537A0" fill-rule="nonzero" d="M455.32 231.16l-126-72.76v-1.81l126 72.76z"/><path stroke="url(#z)" stroke-linejoin="round" stroke-width="1.56" d="M126.37 154.12L.94 82.3 112.98 17l125.5 71.83z" transform="translate(329 91)"/><g fill-rule="nonzero" opacity=".1"><path fill="url(#A)" d="M98.38 124.93c-7 0-13.66-1.6-18.72-4.53L9.36 79.92C3.49 76.53.1 71.5.1 66.11c0-5.4 3.36-10.43 9.24-13.84L91.36 4.75C96.43 1.81 103.1.2 110.1.2c7.02 0 13.68 1.62 18.76 4.56l70.13 40.65c5.88 3.41 9.24 8.46 9.24 13.85 0 5.4-3.38 10.43-9.26 13.83l-81.8 47.29c-5.09 2.93-11.76 4.55-18.79 4.55zM110.1 10.57c-5.14 0-10.08 1.15-13.54 3.16L14.53 61.25c-2.55 1.47-4.07 3.29-4.07 4.84 0 1.56 1.53 3.37 4.08 4.84l70.29 40.48c3.47 2 8.4 3.15 13.55 3.15 5.17 0 10.12-1.16 13.6-3.17l81.8-47.28c2.56-1.48 4.08-3.3 4.08-4.86 0-1.56-1.52-3.38-4.07-4.86l-70.13-40.66c-3.47-2-8.41-3.16-13.56-3.16z" transform="translate(344.55 136.65)"/><path fill="url(#A)" d="M98.38 124.92c-7 0-13.66-1.6-18.72-4.52L9.36 79.92C3.49 76.52.1 71.49.1 66.1c0-5.39 3.36-10.43 9.24-13.84L91.36 4.75C96.43 1.8 103.1.19 110.1.19c7.02 0 13.68 1.62 18.76 4.56l70.13 40.66c5.88 3.4 9.24 8.45 9.24 13.84 0 5.4-3.38 10.44-9.26 13.84l-81.8 47.28c-5.09 2.94-11.76 4.55-18.79 4.55zM110.1 10.56c-5.14 0-10.08 1.16-13.54 3.16L14.53 61.24c-2.55 1.48-4.07 3.29-4.07 4.85 0 1.56 1.53 3.37 4.08 4.84l70.29 40.48c3.47 2 8.4 3.14 13.55 3.14 5.17 0 10.12-1.15 13.6-3.17l81.8-47.28c2.56-1.47 4.08-3.29 4.08-4.85 0-1.57-1.52-3.39-4.07-4.87l-70.13-40.65c-3.47-2.01-8.41-3.17-13.56-3.17z" transform="translate(344.55 155.32)"/><path fill="url(#A)" d="M98.38 124.92c-7 0-13.66-1.6-18.72-4.53L9.36 79.91C3.49 76.52.1 71.48.1 66.1c0-5.4 3.36-10.44 9.24-13.84L91.36 4.74C96.43 1.8 103.1.18 110.1.18c7.02 0 13.68 1.62 18.76 4.56l70.13 40.66c5.88 3.4 9.24 8.45 9.24 13.85 0 5.39-3.38 10.43-9.26 13.83l-81.8 47.28c-5.09 2.94-11.76 4.56-18.79 4.56zM110.1 10.56c-5.14 0-10.08 1.15-13.54 3.16L14.53 61.23c-2.55 1.48-4.07 3.3-4.07 4.85 0 1.56 1.53 3.37 4.08 4.84l70.29 40.48c3.47 2 8.4 3.14 13.55 3.14 5.17 0 10.12-1.15 13.6-3.16l81.8-47.28c2.56-1.48 4.08-3.3 4.08-4.86 0-1.57-1.52-3.39-4.07-4.86l-70.13-40.66c-3.47-2-8.41-3.16-13.56-3.16z" transform="translate(344.55 174)"/><path fill="url(#B)" d="M98.38 124.91c-7 0-13.66-1.6-18.72-4.53L9.36 79.9C3.49 76.51.1 71.48.1 66.1c0-5.39 3.36-10.43 9.24-13.84L91.36 4.73C96.43 1.8 103.1.18 110.1.18c7.02 0 13.68 1.62 18.76 4.56l70.13 40.65c5.88 3.41 9.24 8.46 9.24 13.85 0 5.4-3.38 10.43-9.26 13.83l-81.8 47.29c-5.09 2.93-11.76 4.55-18.79 4.55zM110.1 10.55c-5.14 0-10.08 1.15-13.54 3.16L14.53 61.23c-2.55 1.47-4.07 3.29-4.07 4.84 0 1.56 1.53 3.37 4.08 4.84l70.29 40.48c3.47 2 8.4 3.15 13.55 3.15 5.17 0 10.12-1.16 13.6-3.17l81.8-47.28c2.56-1.48 4.08-3.3 4.08-4.86 0-1.56-1.52-3.38-4.07-4.86L123.66 13.7c-3.47-2-8.41-3.16-13.56-3.16z" transform="translate(344.55 192.67)"/></g><path fill="url(#C)" fill-rule="nonzero" d="M239.42 73.3L126.2 138.5.31 65.73l113-65.5z" opacity=".9" transform="translate(329 91)"/><path fill="#0F76BC" fill-rule="nonzero" d="M455.32 565.03l60.8-35.4-.32-300.13-60.17 34.45z" opacity=".1"/><path fill="url(#D)" fill-rule="nonzero" d="M514.77 129.11L432.2 129 379 159.75l43.58 25.11 57.6.14L545 148.7z" opacity=".3" transform="translate(-50 -4)"/><path fill="url(#a)" fill-rule="nonzero" d="M239.6 82.23l-.38 266.34-126.14 72.2.47-407.84z" opacity=".8" transform="translate(609 169)"/><g fill-rule="nonzero"><path fill="#162B93" d="M609.7 257.8l126.22-72.2 112.68 65.63-126.15 72.2z" opacity=".8"/><path fill="url(#E)" d="M.33 338.54L.71 72.21l112.74 65.64-.37 266.33z" transform="translate(609 185.6)"/><path fill="url(#F)" d="M239.6 65.64l-.38 266.33-126.14 72.2.37-266.32z" opacity=".8" transform="translate(609 185.6)"/></g><path fill="#191C42" fill-rule="nonzero" d="M622.88 265.47l99.57 57.97 113.58-65.01-100.47-58.2z" opacity=".2"/><path fill="#1537A0" fill-rule="nonzero" d="M722.55 309.1l-113.1-65.18v-1.81l113.1 65.17z"/><path fill="url(#G)" fill-rule="nonzero" d="M113.55 138.28l126-72.72v1.8l-126 72.73z" transform="translate(609 169)"/><path stroke="url(#H)" stroke-linejoin="round" stroke-width="1.56" d="M1.38 88.78l125.5-71.8 112.05 65.27-125.44 71.8z" transform="translate(609 169)"/><path fill="url(#I)" fill-rule="nonzero" d="M126.56.23l113 65.47-125.9 72.73L.45 73.26z" opacity=".9" transform="translate(609 169)"/><g fill-rule="nonzero" opacity=".2"><path fill="url(#J)" d="M63.22 11.13c2.16-2.5 3.08-6.33 2.03-8.87-1.12-2.74-4.09-2.97-6.62-.51-.26.25-.5.53-.73.82L.45 65.6v16.07l62.64-70.4.13-.13z" transform="translate(455 360)"/><path fill="url(#K)" d="M204.84 32.45c-1.58-1.54-3.33-2.02-4.7-1.5-.25.1-.5.22-.73.36l-45.2 25.68c-7.68 4.36-21.13 4.3-28.78-.12L63.72 21.14l-.02.03c-1.4-.77-3.34-.34-5.07 1.34-2.53 2.46-3.67 6.67-2.54 9.41.33.82.83 1.4 1.43 1.77l-.02.04L118.4 69c6.03 3.49 13.8 5.24 21.55 5.24 7.62 0 15.22-1.69 21.17-5.07l44.79-25.45-.02-.04a3.6 3.6 0 0 0 1.49-1.81c1.12-2.74-.02-6.95-2.55-9.42z" transform="translate(455 360)"/><path fill="url(#L)" d="M65.25 23.02c1.13 2.74-.01 6.95-2.54 9.41-2.53 2.46-5.5 2.23-6.62-.5-1.13-2.75.01-6.96 2.54-9.42 2.53-2.46 5.5-2.24 6.62.5z" transform="translate(455 360)"/><path fill="#1537A0" d="M653.23 392.96c-1.13 2.74.01 6.96 2.54 9.42 2.53 2.46 5.5 2.23 6.62-.5 1.12-2.75-.02-6.96-2.55-9.42-2.53-2.47-5.49-2.24-6.61.5z"/></g><g fill-rule="nonzero" transform="translate(401 122)"><path fill="#E4E9F7" d="M91.91 18.94l-22.1-12.8a6.83 6.83 0 0 0-6.7 0L4.96 39.91.5 38.85v3.83c0 .75.37 1.5 1.11 1.92l24.66 14.3a6.73 6.73 0 0 0 6.66 0l61.49-35.76a2.2 2.2 0 0 0 1.12-1.92v1.13-4.9l-3.63 1.49z"/><path fill="#FFF" d="M1.61 36.99l61.5-35.77a6.83 6.83 0 0 1 6.7 0l24.6 14.3c1.5.86 1.5 3 0 3.85L32.94 55.13a6.73 6.73 0 0 1-6.66 0L1.61 40.83a2.21 2.21 0 0 1 0-3.84z"/><path fill="#282E5B" d="M8.11 34.69L61.56 3.68l28.76 16.65-53.4 31.01z"/><path fill="#83AFF6" d="M76.76 8.3l5.43 3.15a.4.4 0 0 1 0 .74.81.81 0 0 1-.85 0l-5.38-3.14a.41.41 0 0 1 0-.75c.21-.16.53-.16.8 0zm4.77 19.49l3.62-2.08c.32-.22.75.05.75.43 0 .48-.27.9-.64 1.17l-3.62 2.08c-.32.21-.75-.05-.75-.43-.05-.53.21-.96.64-1.17z"/><ellipse cx="18.97" cy="45.36" fill="#83AFF6" rx="3.78" ry="2.35"/></g><g transform="translate(408 125)"><mask id="N" fill="#fff"><use xlink:href="#M"/></mask><g fill="#FF576F" fill-rule="nonzero" mask="url(#N)" opacity=".1"><path d="M98.15 88.75L8.05 36.88V1.84L46.27 24l6.69-9.16 6.68 16.88 38.51 21.95z"/></g></g><g fill-rule="nonzero" opacity=".2"><path fill="url(#O)" d="M63.05 11.4c2.16-2.5 3.07-6.31 2.03-8.86-1.13-2.74-4.09-2.97-6.62-.5-.26.25-.5.52-.74.81L.28 65.87v16.07l62.64-70.4.13-.13z" transform="translate(320 424)"/><path fill="url(#P)" d="M204.67 11.98c-1.58-1.54-3.33-2.03-4.7-1.5-.25.1-.5.21-.73.35l-45.2 25.68c-7.68 4.37-21.14 4.31-28.79-.12L63.55.66l-.02.04c-1.41-.78-3.34-.35-5.07 1.33-2.53 2.46-3.67 6.68-2.54 9.42.33.8.83 1.4 1.43 1.76l-.02.04 60.9 35.27c6.04 3.5 13.8 5.24 21.56 5.24 7.61 0 15.22-1.69 21.17-5.07l44.78-25.45-.02-.04a3.6 3.6 0 0 0 1.5-1.8c1.12-2.75-.02-6.96-2.55-9.42z" transform="translate(320 424)"/><path fill="#162B93" d="M385.08 426.54c1.12 2.74-.01 6.95-2.55 9.41-2.52 2.46-5.49 2.24-6.61-.5-1.13-2.74.01-6.96 2.54-9.42 2.53-2.46 5.5-2.23 6.62.5z" opacity=".8"/><path fill="#1537A0" d="M518.06 436.48c-1.13 2.75.01 6.96 2.54 9.42 2.53 2.46 5.5 2.23 6.62-.5 1.12-2.75-.02-6.96-2.55-9.42s-5.49-2.24-6.61.5z"/></g><g fill-rule="nonzero" opacity=".6"><path fill="url(#Q)" d="M0 .97L1.31.21l72.42 42.2v1.69l-1.3.75L0 2.65" transform="translate(600 335)"/><path fill="#FFF" d="M671.11 377.42l1.31-.76 1.31.76v1.68l-1.3.75-1.32-.75v-1.68z"/></g><g fill-rule="nonzero"><g transform="translate(208 327.03)"><path fill="url(#R)" d="M2.08 60.83v72.82a4.11 4.11 0 0 0 6.18 3.55l86.45-49.6a12.26 12.26 0 0 0 6.18-10.6V4.16A4.11 4.11 0 0 0 94.7.62L8.26 50.2a12.26 12.26 0 0 0-6.18 10.63z"/><path fill="#A1A9C9" d="M94.25 78.86l-78.85 45.2V54.41l78.85-45.2z"/><ellipse cx="9.63" cy="96.21" fill="#83AFF6" rx="2.75" ry="4.28" transform="rotate(-150 9.63 96.21)"/><path fill="#83AFF6" d="M.77 125.47c.36-.2.56-.55.56-.94v-5.89c0-.35-.4-.6-.7-.4-.36.2-.56.55-.56.95v5.84c0 .4.4.6.7.44z"/><path fill="#F0F3F4" d="M15.4 57.51l78.85-45.67v66.5l-78.85 45.9z"/><path fill="#E2E3E8" d="M41.78 41.3v-.95c0-.05.05-.15.1-.15L45.7 38c.05-.05.1 0 .1.05V39c0 .05-.05.15-.1.15l-3.82 2.2c-.05 0-.1 0-.1-.05zm-6.58 3.74v-.95c0-.05.05-.15.1-.15l3.82-2.2c.05-.04.1 0 .1.06v.94c0 .05-.05.15-.1.15l-3.82 2.2s-.05 0-.1-.05zm-8.3 4.79v-.9c0-.1.06-.15.1-.2l5.84-3.34c.05-.05.1 0 .1.05v.9c0 .1-.05.14-.1.2L27 49.87c-.05 0-.1-.05-.1-.05zm-5.67 3.24v-.95c0-.05 0-.15.05-.15l3.11-1.8s.05 0 .05.06v.94c0 .05 0 .15-.05.15l-3.11 1.8s-.05 0-.05-.05zm-4.03 2.29v-1c0-.04 0-.1.06-.1l1.7-.94c.05 0 .05 0 .05.05v1c0 .05 0 .1-.05.1l-1.7.94c0 .05-.05 0-.05-.05z"/><path fill="#FFF" d="M94.25 12.83L16.6 58.3c-.05.05-.1.15-.15.25v64.85c0 .1.1.14.15.1l77.65-45.18"/><path fill="url(#S)" d="M59.72 13.83v-.8c0-.1.1-.2.15-.25l4.32-2.5c.1-.04.15 0 .15.1v.8c0 .1-.1.2-.15.26l-4.32 2.49c-.05.05-.15 0-.15-.1z" transform="translate(16.14 12.4)"/><path fill="#E2E3E8" d="M71.58 28.68v-.8c0-.1.1-.2.15-.25l2.17-1.25c.1-.05.15 0 .15.1v.8c0 .1-.1.2-.15.25l-2.17 1.25c-.05.05-.15 0-.15-.1z"/><path fill="url(#T)" d="M59.72 14.53l4.62-2.64v.2l-4.62 2.59z" transform="translate(16.14 12.4)"/><path fill="#E2E3E8" d="M23.27 66.49l65.44-37.51v4.04l-65.44 37.5z"/><path fill="#FFF" d="M80.97 35.96v-1.1c0-.1.05-.25.15-.3l5.83-3.34c.1-.05.15 0 .15.1v1.1c0 .1-.05.25-.15.3l-5.83 3.34c-.05.05-.15 0-.15-.1zm-8.95 5.14V40c0-.1.05-.25.15-.3l2.31-1.35c.1-.05.15 0 .15.1v1.1c0 .1-.05.25-.15.3l-2.31 1.35c-.05.05-.15 0-.15-.1zM57.2 49.63v-1.1c0-.1.04-.25.14-.3l4.18-2.4c.1-.04.15 0 .15.1v1.1c0 .1-.05.25-.15.3l-4.18 2.4c-.05 0-.15-.05-.15-.1zm-11.57 6.58v-1.1c0-.1.05-.25.16-.3l4.17-2.39c.1-.05.15 0 .15.1v1.1c0 .1-.05.25-.15.3l-4.17 2.4c-.06.04-.16 0-.16-.1zm-5.93 3.44v-1.1c0-.1.05-.24.15-.3l3.07-1.74c.1-.05.15 0 .15.1v1.1c0 .1-.05.25-.15.3l-3.07 1.74c-.1.05-.15 0-.15-.1zm-11.2 6.39v-1.1c0-.1.05-.25.15-.3l2.06-1.15c.1-.05.15 0 .15.1v1.1c0 .1-.05.25-.15.3l-2.06 1.15c-.1.05-.15 0-.15-.1z"/><g opacity=".4"><path fill="#F9F9F9" d="M23.27 74.17l65.44-37.51v-3.64l-65.44 37.5z"/><path fill="#83AFF6" d="M78.35 40.45l8.4-4.79v.65l-8.4 4.79zm-10.5 6.03l6.78-3.89v.6l-6.78 3.94z"/><path fill="#E2E3E8" d="M53.47 54.72l8.25-4.7v.6l-8.25 4.74zm-7.03 4.04l3.67-2.1v.6l-3.67 2.1zm-11.91 6.83l8.54-4.89v.6l-8.54 4.89z"/><path fill="#16C445" d="M27.6 69.88c0-.4.24-.85.54-1.05l2.12-1.2c.3-.2.55 0 .55.4s-.25.85-.55 1.05l-2.12 1.2c-.3.2-.55 0-.55-.4z"/></g><g opacity=".4"><path fill="#FFF" d="M23.27 77.81L88.71 40.3v-3.64l-65.44 37.5z"/><path fill="#83AFF6" d="M78.9 43.8l7.84-4.5v.65l-7.84 4.44zM70 48.88l4.63-2.65v.6l-4.62 2.7z"/><path fill="#E2E3E8" d="M54.83 57.6l6.89-3.93v.6l-6.89 3.94zm-6.73 3.85l2-1.15v.6l-2 1.2zm-13.57 7.78l8.54-4.89V65l-8.54 4.84zm-6.93 4.29c0-.4.24-.85.54-1.05l2.12-1.2c.3-.2.55 0 .55.4s-.25.85-.55 1.05l-2.12 1.2c-.3.2-.55 0-.55-.4z"/></g><g opacity=".4"><path fill="#F9F9F9" d="M23.27 103.35l65.44-37.51V62.2L23.27 99.7z"/><path fill="#83AFF6" d="M78.35 69.63l8.4-4.79v.65l-8.4 4.79zm-10.5 6.04l6.78-3.9v.65l-6.78 3.9z"/><path fill="#E2E3E8" d="M53.47 83.9l8.25-4.7v.6l-8.25 4.74zm-7.03 4.04l3.67-2.1v.6l-3.67 2.14zm-11.91 6.83l8.54-4.89v.65l-8.54 4.84z"/><path fill="#16C445" d="M27.6 99.06c0-.4.24-.85.54-1.05l2.12-1.2c.3-.2.55 0 .55.4s-.25.85-.55 1.05l-2.12 1.2c-.3.2-.55 0-.55-.4z"/></g><g opacity=".4"><path fill="#FFF" d="M23.27 107.04l65.44-37.51v-3.7l-65.44 37.52z"/><path fill="#83AFF6" d="M78.9 72.97l7.84-4.44v.6l-7.84 4.49zM70 78.06l4.63-2.64v.64l-4.62 2.65z"/><path fill="#E2E3E8" d="M54.83 86.79l6.89-3.94v.65l-6.89 3.89zm-6.73 3.84l2-1.15v.6l-2 1.2zm-13.57 7.78l8.54-4.89v.65l-8.54 4.84zm-6.93 4.34c0-.4.24-.85.54-1.05l2.12-1.2c.3-.2.55 0 .55.4s-.25.85-.55 1.05l-2.12 1.2c-.3.15-.55-.05-.55-.4z"/></g><g opacity=".4"><path fill="#F9F9F9" d="M23.27 81.45L88.71 44v-3.7L23.27 77.82z"/><path fill="#83AFF6" d="M78.1 47.93L86.74 43v.6l-8.64 4.94zm-10.25 5.84l6.78-3.9v.65l-6.78 3.9z"/><path fill="#E2E3E8" d="M53.47 62l8.25-4.7v.66l-8.25 4.69zm-5.93 3.44l2.57-1.5v.6l-2.57 1.5zm-13.01 7.43l8.54-4.89v.65l-8.54 4.84zm-6.93 4.34c0-.4.24-.85.54-1.05l2.12-1.2c.3-.2.55 0 .55.4s-.25.85-.55 1.05l-2.12 1.2c-.3.15-.55-.05-.55-.4z"/></g><g opacity=".4"><path fill="#FFF" d="M23.27 85.14l65.44-37.5v-3.65L23.27 81.45z"/><path fill="#83AFF6" d="M81.47 49.63l5.27-3v.6l-5.27 3zm-12.52 7.18l5.68-3.3v.66l-5.68 3.24z"/><path fill="#E2E3E8" d="M54.03 65.34l7.69-4.39v.65l-7.7 4.39zM47 69.38l3.1-1.8v.65l-3.1 1.8zm-12.47 7.13l8.54-4.89v.65l-8.54 4.9z"/><path fill="#16C445" d="M27.6 80.85c0-.4.24-.84.54-1.04l2.12-1.2c.3-.2.55 0 .55.4s-.25.85-.55 1.05l-2.12 1.2c-.3.14-.55-.06-.55-.4z"/></g><g opacity=".4"><path fill="#F9F9F9" d="M23.27 88.78l65.44-37.5v-3.65L23.27 85.14z"/><path fill="#83AFF6" d="M77 55.81l9.74-5.53v.6L77 56.45zm-7 4.04l4.63-2.64v.6l-4.62 2.64z"/><path fill="#E2E3E8" d="M54.83 68.53l6.89-3.94v.65l-6.89 3.94zm-6.73 3.89l2-1.2v.65l-2 1.15zm-13.57 7.73l8.54-4.83v.6l-8.54 4.88zM27.6 84.5c0-.4.24-.85.54-1.05l2.12-1.2c.3-.2.55 0 .55.4s-.25.85-.55 1.05l-2.12 1.2c-.3.14-.55 0-.55-.4z"/></g><g opacity=".4"><path fill="#FFF" d="M23.27 92.43L88.71 54.9v-3.64L23.27 88.78z"/><path fill="#83AFF6" d="M79.46 58.06l7.28-4.14v.65l-7.28 4.14zM66.5 65.54l8.13-4.69v.6l-8.14 4.69z"/><path fill="#E2E3E8" d="M53.22 73.12l8.5-4.84v.6l-8.5 4.89zm-7.33 4.19l4.22-2.44v.65l-4.22 2.39zM34.53 83.8l8.54-4.84v.6l-8.54 4.88z"/><path fill="#16C445" d="M27.6 88.14c0-.4.24-.85.54-1.05l2.12-1.2c.3-.2.55 0 .55.4s-.25.85-.55 1.05l-2.12 1.2c-.3.2-.55 0-.55-.4z"/></g><g opacity=".4"><path fill="#F9F9F9" d="M23.27 96.07l65.44-37.51V54.9L23.27 92.43z"/><path fill="#83AFF6" d="M77 63.15l9.74-5.6v.66L77 63.74zm-7 3.99l4.63-2.65v.6l-4.62 2.64z"/><path fill="#E2E3E8" d="M54.83 75.82l6.89-3.9v.6l-6.89 3.94zM48.1 79.7l2-1.14v.6l-2 1.14zm-13.57 7.79l8.54-4.9v.6l-8.54 4.9zm-6.93 4.29c0-.4.24-.85.54-1.05l2.12-1.2c.3-.2.55 0 .55.4s-.25.85-.55 1.05l-2.12 1.2c-.3.2-.55 0-.55-.4z"/></g><g opacity=".4"><path fill="#FFF" d="M23.27 99.7l65.44-37.5v-3.64l-65.44 37.5z"/><path fill="#83AFF6" d="M79.46 65.39l7.28-4.2v.66l-7.28 4.14zM66.5 72.82l8.13-4.69v.6l-8.14 4.7z"/><path fill="#E2E3E8" d="M53.22 80.4l8.5-4.83v.6l-8.5 4.88zm-7.33 4.2l4.22-2.4v.6l-4.22 2.44zm-11.36 6.53l8.54-4.89v.6l-8.54 4.89z"/><path fill="#16C445" d="M27.6 95.42c0-.4.24-.85.54-1.05l2.12-1.2c.3-.2.55 0 .55.4s-.25.85-.55 1.05l-2.12 1.2c-.3.2-.55 0-.55-.4z"/></g></g><path fill="url(#U)" d="M7 49.69L92.3.75c1.76-1 3.8-.7 5.2.4a4.08 4.08 0 0 0-2.8.5L8.26 51.23a12.26 12.26 0 0 0-6.18 10.63v72.83c0 .56.11 1.09.3 1.56a4.47 4.47 0 0 1-1.96-3.7V61c0-4.69 2.51-8.98 6.59-11.32z" transform="translate(208 326)"/><path fill="#E2E3E8" d="M278.25 374.3l-30.78 18.03a.43.43 0 0 0-.06.1v25.7c0 .04.04.06.06.04l30.78-17.9"/><path fill="#FFF" d="M282.33 376.65l-30.78 18.03-.06.1v25.7c0 .05.04.07.06.05l30.78-17.91"/><path fill="#FF6482" d="M257.65 396.16a3.66 3.66 0 0 0-1.67 2.86v8.57c0 1.05.75 1.48 1.67.95l22.69-13.05a3.66 3.66 0 0 0 1.66-2.87v-8.54c0-1.05-.75-1.48-1.67-.96l-22.68 13.04z"/><path fill="#FFF" d="M262.74 396.58l1.91-1.09c.46-.26.81-.32 1.06-.17.26.14.38.46.38.96a2.83 2.83 0 0 1-1.44 2.45l-.85.49v2.07l-1.06.6v-5.3zm1.77 1.18c.4-.22.6-.53.6-.9 0-.19-.05-.3-.15-.34-.1-.05-.24 0-.45.11l-.71.4v1.14l.7-.4zm5.62-.1l-.35-.9-1.78 1.03-.36 1.3-1.06.6 1.88-6.38.83-.48 1.89 4.23-1.05.6zm-1.79-1.12l1.1-.63-.55-1.36-.55 1.99zm7.19-7.29l-1.7 4.26v2.03l-1.06.6v-2.03l-1.68-2.3 1.2-.7 1 1.54 1.04-2.7z"/></g><g fill-rule="nonzero" opacity=".6"><path fill="url(#V)" d="M.18.98L1.45.25l141.53 81.93v1.62l-1.26.73L.18 2.6" transform="translate(483 72)"/><path fill="#FFF" d="M623.45 154.18l1.26-.73 1.27.73v1.62l-1.26.73-1.28-.73v-1.62z"/></g><g fill-rule="nonzero" opacity=".6"><path fill="url(#W)" d="M.31.74L1.58 0 142.6 82.44v1.63l-1.26.73L.3 2.37" transform="translate(173 -4)"/><path fill="#FFF" d="M313.07 78.44l1.26-.74 1.27.74v1.63l-1.26.73-1.27-.73v-1.63z"/></g><path fill="#162B93" fill-rule="nonzero" d="M239.76 248h-59.34L160 236.22 267.03 175 318 204.39z" opacity=".1"/><g fill-rule="nonzero" opacity=".6"><path fill="url(#X)" d="M0 .98L1.27.25 142.8 82.18v1.62l-1.26.73L0 2.6" transform="translate(8 368)"/><path fill="#FFF" d="M148.27 450.18l1.27-.73 1.26.73v1.62l-1.26.73-1.27-.73v-1.62z"/></g><g fill-rule="nonzero" opacity=".6"><path fill="url(#Y)" d="M.23.86L1.49.12 142.5 82.55v1.64l-1.26.73L.23 2.49" transform="translate(962 200)"/><path fill="#FFF" d="M1101.98 282.55l1.27-.73 1.26.73v1.64l-1.26.73-1.27-.73v-1.64z"/></g><g fill-rule="nonzero" opacity=".6"><path fill="url(#Z)" d="M86.7 1.08l-1.53-.9-85 49.73v1.98l1.53.9 85-49.73" transform="translate(851 238)"/><path fill="#FFF" d="M854.24 287.91l-1.54-.9-1.53.9v1.98l1.53.9 1.54-.9v-1.98z"/></g><g fill-rule="nonzero"><path fill="url(#aa)" d="M87.52.94L85.98.05.5 49.78v1.98l1.54.89L87.52 2.93" opacity=".6" transform="translate(364 375)"/><path fill="#FFF" d="M367.6 424.78l-1.55-.9-1.54.9v1.98l1.54.89 1.55-.9v-1.98z"/></g><g fill-rule="nonzero" opacity=".3"><path fill="url(#ab)" d="M86.56.92l-1.54-.9-85 49.73v1.98l1.53.89L86.56 2.9" opacity=".6" transform="translate(934 96)"/><path fill="#FFF" d="M937.1 145.75l-1.54-.9-1.54.9v1.98l1.53.89 1.55-.9v-1.97z"/></g><path fill="url(#ac)" fill-rule="nonzero" d="M67.55 28.53a6.95 6.95 0 0 1 3.16 5.42l.15 74.23c0 2-1.41 2.81-3.15 1.82L19.33 82.33a6.95 6.95 0 0 1-3.16-5.42l-.15-74.23c0-2 1.41-2.82 3.14-1.82l48.39 27.67z" opacity=".2" transform="translate(354 317)"/><g transform="translate(354 319.07)"><mask id="ae" fill="#fff"><use xlink:href="#ad"/></mask><g fill-rule="nonzero" mask="url(#ae)"><path fill="url(#af)" d="M51.87 28.2a6.95 6.95 0 0 1 3.15 5.42l.15 74.23c0 2-1.4 2.81-3.14 1.82L3.64 82A6.95 6.95 0 0 1 .5 76.57L.34 2.35c0-2 1.4-2.82 3.14-1.83L51.87 28.2z" transform="translate(7.77 3.1)"/><path fill="#FFF" d="M19.49 33.89v-5.34l1.05.62v5.33zm5.26-2.29l1 .56v5.34l-.79-.45-1.81-4.08V36l-.99-.57V30.1l.77.44 1.82 4.06zm5.55 3.2l1.06.6-1.82 4.29-.84-.48-1.82-6.39 1.1.63 1.15 4.25zm2.9 6.74c-.3-.4-.53-.85-.7-1.36a5.19 5.19 0 0 1-.24-1.6c0-.55.09-.98.25-1.3.17-.31.4-.5.7-.54.3-.05.66.05 1.07.28.4.24.76.55 1.06.95.3.4.54.85.7 1.35.16.5.24 1.03.24 1.58a3 3 0 0 1-.24 1.32c-.16.32-.4.5-.7.55-.3.05-.65-.04-1.06-.28a3.6 3.6 0 0 1-1.07-.95zm1.78-.14c.17-.19.26-.55.26-1.1 0-.54-.09-1-.26-1.38-.17-.38-.4-.65-.7-.83-.3-.17-.54-.17-.7.02-.17.18-.26.54-.26 1.09s.09 1.01.26 1.39c.16.38.4.66.7.83.3.17.53.17.7-.02zm2.82 3.05v-5.33l1.05.6v5.34zm3.53 1.77a5.06 5.06 0 0 1-.96-2.96c0-.54.08-.97.25-1.28.16-.32.4-.5.71-.55.31-.05.67.05 1.09.29a3.7 3.7 0 0 1 1.35 1.36l-.32.82c-.32-.5-.66-.86-1-1.06-.33-.19-.58-.2-.75-.02-.17.17-.26.53-.26 1.06 0 .54.09 1 .26 1.37.17.38.42.66.74.84.35.2.69.24 1.01.11l.32 1.18a.86.86 0 0 1-.59.09 2.2 2.2 0 0 1-.76-.28 3.66 3.66 0 0 1-1.09-.97zm3.89 2.52V43.4l2.86 1.64v1.08l-1.83-1.05v1l1.71.99v1.08l-1.7-.99v1.1l1.82 1.05v1.08z" opacity=".6"/><path fill="url(#ag)" d="M12.1 11.1c.26.16.48.54.48.85l.03 8.28c0 .31-.22.44-.49.29l-7.5-4.29a1.08 1.08 0 0 1-.48-.84L4.12 7.1c0-.3.21-.43.48-.28l7.5 4.29z" opacity=".4" transform="translate(7.77 3.1)"/><g opacity=".4"><path fill="url(#ah)" d="M11.71 6.82c.15.08.27.3.27.46L12 8.45c0 .17-.13.24-.27.15L.76 2.3a.6.6 0 0 1-.27-.46L.48.67C.48.5.6.43.75.51l10.96 6.3z" transform="translate(44.57 28.49)"/><path fill="url(#ai)" d="M11.71 10.16c.15.09.27.3.27.47l.02 1.16c0 .17-.13.24-.27.16L.76 5.65a.6.6 0 0 1-.27-.47L.48 4c0-.17.12-.24.27-.15l10.96 6.3z" transform="translate(44.57 28.49)"/><path fill="url(#aj)" d="M11.71 13.43c.15.09.27.3.27.47l.02 1.16c0 .17-.13.24-.27.16l-7.95-4.54a.6.6 0 0 1-.27-.47l-.02-1.16c0-.18.12-.25.27-.16l7.95 4.54z" transform="translate(44.57 28.49)"/></g><g opacity=".3"><path fill="url(#ak)" d="M11.71 6.57c.15.09.27.3.27.47L12 8.2c0 .17-.13.25-.27.16L.76 2.06a.6.6 0 0 1-.27-.47L.48.43C.48.25.6.18.75.27l10.96 6.3z" opacity=".4" transform="translate(44.57 82.87)"/><path fill="url(#al)" d="M11.71 9.92c.15.08.27.3.27.46l.02 1.17c0 .17-.13.24-.27.15L.76 5.4a.6.6 0 0 1-.27-.47L.48 3.77c0-.17.12-.24.27-.16l10.96 6.3z" opacity=".4" transform="translate(44.57 82.87)"/><path fill="url(#am)" d="M11.71 13.19c.15.08.27.3.27.46l.02 1.17c0 .17-.13.24-.27.15l-7.95-4.54a.6.6 0 0 1-.27-.46L3.49 8.8c0-.17.12-.24.27-.15l7.95 4.54z" opacity=".4" transform="translate(44.57 82.87)"/></g><g opacity=".4"><path fill="url(#an)" d="M11.71 6.66c.15.08.27.3.27.46L12 8.3c0 .17-.13.24-.27.16L.76 2.15a.6.6 0 0 1-.27-.47L.48.5C.48.34.6.27.75.35l10.96 6.3z" transform="translate(44.57 56.97)"/><path fill="url(#ao)" d="M11.71 10c.15.09.27.3.27.47l.02 1.16c0 .17-.13.24-.27.16L.76 5.49a.6.6 0 0 1-.27-.47L.48 3.85c0-.17.12-.24.27-.15L11.7 10z" transform="translate(44.57 56.97)"/><path fill="url(#ap)" d="M11.71 13.27c.15.09.27.3.27.47L12 14.9c0 .17-.13.24-.27.16l-7.95-4.54a.6.6 0 0 1-.27-.47L3.49 8.9c0-.17.12-.25.27-.16l7.95 4.54z" transform="translate(44.57 56.97)"/></g><g opacity=".5"><path fill="url(#aq)" d="M13.67 7.84c.14.09.27.3.27.47v1.16c.01.17-.11.24-.26.16L.78 2.24a.6.6 0 0 1-.28-.47V.61C.49.44.6.37.76.45l12.9 7.4z" opacity=".4" transform="translate(11.4 43.5)"/><path fill="url(#ar)" d="M11.72 10.1c.15.09.27.3.27.47l.02 1.16c0 .17-.12.24-.27.16L.77 5.59a.6.6 0 0 1-.27-.47V3.95c0-.17.12-.24.27-.15l10.96 6.3z" opacity=".4" transform="translate(11.4 43.5)"/><path fill="url(#as)" d="M17.1 16.68c.14.08.26.3.27.46v1.17c0 .17-.11.24-.26.15L.77 9.15a.6.6 0 0 1-.27-.47V7.52c0-.17.12-.25.27-.16l16.33 9.32z" opacity=".4" transform="translate(11.4 43.5)"/></g><g opacity=".6"><path fill="url(#at)" d="M15.86 9.27c.15.09.27.3.27.47l.01 1.16c0 .17-.12.24-.27.16L.4 2.17a.6.6 0 0 1-.27-.46L.1.54C.11.37.23.3.38.38l15.48 8.9z" opacity=".4" transform="translate(40.42 65.26)"/><path fill="url(#au)" d="M15.86 12.62c.15.08.27.29.27.46l.01 1.17c0 .17-.12.24-.27.15L.4 5.51a.6.6 0 0 1-.27-.46L.1 3.88c0-.17.12-.24.27-.15l15.48 8.89z" opacity=".4" transform="translate(40.42 65.26)"/></g><path fill="url(#av)" d="M48.5 82.17c.16.08.28.3.28.46l.01.13c0 .17-.12.25-.27.16L4.4 57.83a.6.6 0 0 1-.27-.46l-.01-.13c0-.17.12-.24.26-.16l44.13 25.09z" opacity=".2" transform="translate(7.77 3.1)"/><path fill="url(#aw)" d="M6.37 77.13a5.3 5.3 0 0 0 2.41 4.15l37.06 21.2c1.33.76 2.4.13 2.4-1.4v-2.72L6.36 74.41v2.72z" opacity=".6" transform="translate(7.77 3.1)"/></g></g><path fill="url(#ax)" fill-rule="nonzero" d="M53.94 111.31c-.53 0-1.08-.16-1.65-.48L3.91 83.15a7.5 7.5 0 0 1-3.42-5.87L.34 3.05c0-.91.26-1.66.75-2.15C1.85.14 3.05.09 4.26.78l48.38 27.67a7.5 7.5 0 0 1 3.42 5.87l.15 74.23c0 .91-.26 1.66-.76 2.16-.4.4-.92.6-1.51.6zM2.6 1.32c-.32 0-.58.1-.78.3-.3.3-.46.8-.45 1.43l.14 74.23c0 1.8 1.33 4.08 2.9 4.97l48.39 27.68c.77.44 1.49.46 1.9.04.3-.29.46-.8.46-1.42l-.15-74.22c0-1.8-1.33-4.09-2.9-4.98L3.75 1.68c-.4-.23-.8-.36-1.13-.36z" opacity=".5" transform="translate(364.88 320.1)"/><path fill="url(#ay)" fill-rule="nonzero" d="M472.68 252.1a6.95 6.95 0 0 1 3.17 5.42l.15 74.23c0 2-1.41 2.82-3.15 1.83l-48.53-27.67a6.95 6.95 0 0 1-3.17-5.43l-.15-74.23c0-2 1.41-2.82 3.15-1.83l48.53 27.67z" opacity=".5" transform="translate(-50 -4)"/><path fill="url(#az)" fill-rule="nonzero" d="M54.43 110.96a3.4 3.4 0 0 1-1.67-.49L3.94 82.9a7.47 7.47 0 0 1-3.45-5.86l-.15-74c0-.9.26-1.65.76-2.14C1.86.14 3.08.09 4.3.78l48.82 27.58a7.47 7.47 0 0 1 3.45 5.86l.15 73.99c0 .9-.27 1.65-.77 2.14-.4.4-.93.61-1.52.61zM2.63 1.32c-.32 0-.58.1-.79.3-.3.3-.45.8-.45 1.42l.15 74a6.4 6.4 0 0 0 2.92 4.95l48.82 27.59c.79.44 1.5.46 1.93.04.3-.29.46-.8.46-1.41l-.15-74c0-1.8-1.34-4.06-2.92-4.96L3.77 1.67c-.4-.23-.8-.35-1.14-.35z" transform="translate(365 223)"/><g fill-rule="nonzero"><path fill="url(#aA)" d="M51.44 28.3a6.94 6.94 0 0 1 3.13 5.4l.15 74.02c0 1.99-1.4 2.8-3.12 1.82L3.61 81.94a6.94 6.94 0 0 1-3.13-5.4L.34 2.53c0-2 1.4-2.81 3.11-1.82l48 27.59z" transform="translate(362 225)"/><path fill="#FFF" d="M373.62 255.88v-5.32l1.04.6v5.33zm5.22-2.29l.98.57v5.32l-.77-.45-1.8-4.06v3.01l-.98-.56v-5.32l.76.44 1.8 4.05zm5.5 3.19l1.05.61-1.8 4.27-.83-.48-1.81-6.37 1.09.63 1.14 4.24zm2.89 6.72c-.3-.39-.53-.84-.7-1.35a5.2 5.2 0 0 1-.24-1.59c0-.55.08-.98.25-1.3.16-.31.4-.5.7-.54.29-.05.64.05 1.05.28.4.24.76.55 1.05.95a4.75 4.75 0 0 1 .93 2.92c0 .56-.08 1-.24 1.31a.96.96 0 0 1-.69.56c-.3.04-.65-.05-1.05-.29-.4-.23-.76-.55-1.06-.94zm1.76-.13c.17-.19.25-.55.25-1.1 0-.53-.08-1-.25-1.37-.17-.38-.4-.66-.7-.83-.3-.17-.53-.17-.7.01-.17.19-.25.55-.25 1.1 0 .54.08 1 .25 1.38.17.38.4.65.7.83.3.17.53.16.7-.02zm2.79 3.04v-5.32l1.05.61v5.32zm3.5 1.76a5.07 5.07 0 0 1-.96-2.95c0-.53.09-.96.25-1.28.17-.31.4-.5.71-.54.31-.05.67.05 1.08.29a3.67 3.67 0 0 1 1.35 1.36l-.32.8c-.32-.5-.66-.85-1-1.05-.32-.18-.57-.19-.74-.02-.17.18-.26.53-.26 1.06 0 .54.09 1 .26 1.37.17.37.42.65.74.84.34.2.68.23 1 .1l.32 1.19a.85.85 0 0 1-.6.08 2.24 2.24 0 0 1-.75-.28 3.65 3.65 0 0 1-1.08-.97zm3.87 2.52v-5.32l2.83 1.64v1.08l-1.81-1.06v1l1.7.99v1.07l-1.7-.98v1.1l1.8 1.04v1.08z" opacity=".6"/><path fill="url(#aB)" d="M12 11.26c.26.15.48.53.48.84l.02 8.26c0 .3-.21.43-.48.28L4.6 16.37a1.07 1.07 0 0 1-.49-.84l-.02-8.26c0-.3.22-.44.48-.28L12 11.26z" opacity=".4" transform="translate(362 225)"/><g opacity=".4"><path fill="url(#aC)" d="M11.62 6.47c.14.08.26.3.26.46l.02 1.16c0 .17-.12.24-.27.16L.75 1.96A.6.6 0 0 1 .5 1.5L.47.34C.47.17.6.1.74.18l10.88 6.29z" transform="translate(398.5 250.82)"/><path fill="url(#aD)" d="M11.62 9.8c.14.09.26.3.26.46l.02 1.17c0 .17-.12.24-.27.15L.75 5.3a.6.6 0 0 1-.26-.46L.47 3.67c0-.17.12-.24.27-.16L11.62 9.8z" transform="translate(398.5 250.82)"/><path fill="url(#aE)" d="M11.62 13.06c.14.09.26.3.26.47l.02 1.16c0 .17-.12.24-.27.15l-7.88-4.53a.6.6 0 0 1-.27-.46L3.46 8.7c0-.17.12-.24.27-.16l7.89 4.53z" transform="translate(398.5 250.82)"/></g><g opacity=".3"><path fill="url(#au)" d="M11.62 6.74c.14.09.26.3.26.46l.02 1.17c0 .17-.12.24-.27.15L.75 2.24a.6.6 0 0 1-.26-.47L.47.61C.47.44.6.37.74.45l10.88 6.3z" opacity=".4" transform="translate(398.5 304.53)"/><path fill="url(#aF)" d="M11.62 10.07c.14.09.26.3.26.47l.02 1.16c0 .17-.12.24-.27.15L.75 5.57A.6.6 0 0 1 .5 5.1L.47 3.94c0-.17.12-.24.27-.15l10.88 6.28z" opacity=".4" transform="translate(398.5 304.53)"/><path fill="url(#aG)" d="M11.62 13.34a.6.6 0 0 1 .26.46l.02 1.16c0 .17-.12.24-.27.16l-7.88-4.53a.6.6 0 0 1-.27-.47l-.02-1.16c0-.17.12-.24.27-.15l7.89 4.53z" opacity=".4" transform="translate(398.5 304.53)"/></g><g opacity=".4"><path fill="url(#aH)" d="M11.62 6.82c.14.09.26.3.26.47l.02 1.16c0 .17-.12.24-.27.16L.75 2.3a.6.6 0 0 1-.26-.45L.47.69C.47.52.6.45.74.54l10.88 6.28z" transform="translate(398.5 278.7)"/><path fill="url(#aI)" d="M11.62 10.16c.14.08.26.3.26.46l.02 1.16c0 .17-.12.24-.27.16L.75 5.65A.6.6 0 0 1 .5 5.2L.47 4.03c0-.17.12-.24.27-.16l10.88 6.29z" transform="translate(398.5 278.7)"/><path fill="url(#aJ)" d="M11.62 13.42c.14.08.26.3.26.46l.02 1.17c0 .17-.12.24-.27.15l-7.88-4.53a.6.6 0 0 1-.27-.46l-.02-1.16c0-.17.12-.24.27-.16l7.89 4.53z" transform="translate(398.5 278.7)"/></g><g opacity=".5"><path fill="url(#aK)" d="M13.55 7.49c.15.08.27.3.27.46l.02 1.16c0 .17-.12.24-.27.16L.77 1.9a.6.6 0 0 1-.27-.46L.48.28C.48.1.6.04.75.12l12.8 7.37z" opacity=".4" transform="translate(365.6 265.8)"/><path fill="url(#aL)" d="M11.63 9.74c.14.08.26.3.27.46v1.17c0 .17-.11.24-.26.15L.76 5.23a.6.6 0 0 1-.26-.46L.48 3.61c0-.17.12-.24.27-.16l10.88 6.29z" opacity=".4" transform="translate(365.6 265.8)"/><path fill="url(#aM)" d="M16.96 16.3c.14.08.26.3.26.46l.02 1.16c0 .17-.12.24-.27.16L.77 8.78a.6.6 0 0 1-.27-.46L.48 7.16c0-.17.12-.24.27-.15l16.2 9.29z" opacity=".4" transform="translate(365.6 265.8)"/></g><g opacity=".6"><path fill="url(#aN)" d="M15.73 8.92c.15.08.27.29.27.46l.01 1.16c0 .17-.12.24-.27.16L.4 1.83a.6.6 0 0 1-.27-.46V.21c0-.17.11-.24.26-.16l15.35 8.87z" opacity=".4" transform="translate(394.38 287.49)"/><path fill="url(#aO)" d="M15.73 12.25c.15.08.27.3.27.46l.01 1.16c0 .17-.12.24-.27.16L.4 5.17a.6.6 0 0 1-.27-.47V3.54c0-.17.11-.24.26-.15l15.35 8.86z" opacity=".4" transform="translate(394.38 287.49)"/></g><path fill="url(#aP)" d="M48.11 82.12c.15.08.27.3.27.46l.01.13c0 .17-.12.24-.26.16L4.36 57.85a.6.6 0 0 1-.27-.46v-.13c0-.17.11-.24.26-.16L48.1 82.12z" opacity=".2" transform="translate(362 225)"/><path fill="url(#aQ)" d="M6.32 77.1a5.31 5.31 0 0 0 2.4 4.13l36.75 21.14c1.31.75 2.39.13 2.38-1.4v-2.7L6.3 74.36v2.72z" opacity=".6" transform="translate(362 225)"/></g><g fill-rule="nonzero"><g transform="translate(870 227.55)"><path fill="url(#aR)" d="M132.3 72.25L9.12 1.04A5.86 5.86 0 0 0 .3 6.12v104.6c0 6.31 3.37 12.12 8.81 15.27l123.2 71.21a5.86 5.86 0 0 0 8.8-5.08V87.52c0-6.31-3.36-12.11-8.8-15.27z"/><path fill="#A1A9C9" d="M17.92 18.59L130.3 83.5v100.02L17.92 118.61z"/><ellipse cx="8.64" cy="64.16" fill="#83AFF6" rx="4.94" ry="3.15" transform="rotate(60 8.64 64.16)"/><path fill="#83AFF6" d="M143.98 179.72v-8.38c0-.57-.28-1.07-.79-1.36-.43-.29-1 .07-1 .57v8.46c0 .57.29 1.07.79 1.36a.7.7 0 0 0 1-.65z"/><path fill="#4A5E91" d="M17.92 18.59l15.61 9.03v100.02l-15.61-9.03zm15.61 9.03L130.3 83.5v100.02l-96.77-55.88z"/><path fill="#C9C7D3" d="M24.51 33.35l-2.87-1.65c-.07 0-.07-.07-.07-.14v-1.8c0-.07 0-.07.07-.07l2.87 1.65c.07 0 .07.07.07.15v1.79c0 .07-.07.07-.07.07zm2.65 5.51l-5.59-3.22c-.07 0-.07-.07-.07-.14v-1.8c0-.07 0-.07.07-.07l5.59 3.23c.07 0 .07.07.07.14v1.8c0 .06 0 .06-.07.06zm1.29 4.88l-6.88-3.94c-.07 0-.07-.08-.07-.15v-1.79c0-.07 0-.07.07-.07l6.88 3.94c.07 0 .07.07.07.14v1.8c0 .07 0 .07-.07.07zM24.51 84.5l-2.87-1.64c-.07 0-.07-.07-.07-.15v-1.79c0-.07 0-.07.07-.07l2.87 1.65c.07 0 .07.07.07.14v1.8l-.07.06zm2.65 5.45l-5.59-3.23c-.07 0-.07-.07-.07-.14V84.8c0-.07 0-.07.07-.07l5.59 3.22c.07 0 .07.07.07.15v1.79c0 .07 0 .14-.07.07zm1.29 4.87l-6.88-3.94c-.07 0-.07-.07-.07-.14v-1.8c0-.07 0-.07.07-.07l6.88 3.95c.07 0 .07.07.07.14v1.79c0 .07 0 .07-.07.07zm-1.72-48.15l-5.16-3c-.07 0-.07-.08-.07-.15v-1.79c0-.07 0-.07.07-.07l5.16 3c.07 0 .07.08.07.15v1.8c0 .06 0 .14-.07.06zm-1.5 17.56l-3.66-2.08c-.07 0-.07-.07-.07-.14v-1.8c0-.07 0-.07.07-.07l3.66 2.08c.07 0 .07.07.07.15v1.79c0 .07 0 .14-.07.07zm2.14 5.23l-5.73-3.3c-.07 0-.07-.07-.07-.14v-1.8c0-.06 0-.06.07-.06l5.73 3.3c.08 0 .08.06.08.14v1.79c0 .07-.08.07-.08.07z" opacity=".4"/><path fill="#FFF" d="M29.6 29.66l-7.74-4.5c-.07 0-.14-.15-.14-.22v-1.37c0-.07.07-.14.14-.07l7.74 4.52c.07 0 .14.14.14.21v1.36c-.07.07-.14.15-.14.07z"/><path fill="#F0F3F4" d="M130.3 183.8l-96.2-55.82v-95.5l96.2 55.47z"/><path fill="#E2E3E8" d="M92.55 64.73l-5.44-3.15c-.07 0-.14-.15-.14-.22V60c0-.07.07-.14.14-.07l5.44 3.15c.08 0 .15.15.15.22v1.36c0 .07-.07.07-.15.07zm9.39 5.37l-5.45-3.15c-.07 0-.14-.14-.14-.21v-1.37c0-.07.07-.14.14-.07l5.45 3.16c.07 0 .14.14.14.21v1.36c-.07.07-.14.07-.14.07zm11.82 6.88l-8.31-4.8c-.07-.07-.15-.14-.15-.29v-1.28c0-.08.08-.15.15-.08l8.3 4.8c.08.08.15.15.15.3v1.28s-.07.07-.14.07zm8.16 4.66l-4.44-2.58c-.07 0-.07-.14-.07-.22v-1.36c0-.07.07-.07.07-.07l4.44 2.58c.07 0 .07.14.07.22v1.36c0 .07-.07.07-.07.07zm5.73 3.29l-2.43-1.36c-.08 0-.08-.07-.08-.14V82c0-.08 0-.08.08-.08l2.43 1.37c.07 0 .07.07.07.14v1.43c0 .07-.07.15-.07.07z"/><path fill="#FFF" d="M128.58 89.09l-92.9-53.66c-.07-.08-.21 0-.21.14v92.95c0 .14.07.28.21.35l92.9 53.87c.07.07.22 0 .22-.15V89.45a1.4 1.4 0 0 0-.22-.36z"/><path fill="url(#aS)" d="M8.7 7.93L2.54 4.35c-.07-.07-.22-.22-.22-.36V2.84c0-.14.07-.21.22-.14L8.7 6.28c.07.07.21.22.21.36V7.8c0 .14-.14.21-.21.14z" transform="translate(35.22 35.23)"/><path fill="#E2E3E8" d="M50 46.67l-3.07-1.79c-.07-.07-.22-.21-.22-.35v-1.15c0-.14.07-.22.22-.14L50 45.03c.07.07.21.21.21.35v1.15c0 .14-.14.22-.21.14z"/><path fill="url(#aT)" d="M8.91 9L2.32 5.29V5l6.6 3.8z" transform="translate(35.22 35.23)"/><path fill="#E2E3E8" d="M128.73 106.64L35.47 52.76v-5.8l93.26 53.88z"/><path fill="#FFF" d="M46.28 57.14l-8.3-4.8c-.15-.08-.22-.3-.22-.44v-1.57c0-.15.07-.22.22-.15l8.3 4.8c.15.08.22.3.22.44v1.57c0 .15-.14.22-.22.15zm12.75 7.38l-3.3-1.94c-.13-.07-.2-.29-.2-.43v-1.58c0-.14.06-.21.2-.14l3.3 1.94c.15.07.22.28.22.43v1.57c0 .15-.15.22-.22.15zm21.13 12.25l-5.94-3.44c-.15-.07-.22-.29-.22-.43v-1.58c0-.14.07-.21.22-.14l5.94 3.44c.15.07.22.28.22.43v1.57c0 .07-.15.15-.22.15zm16.48 9.45l-5.95-3.44c-.14-.07-.21-.28-.21-.43v-1.57c0-.15.07-.22.21-.15l5.95 3.44c.14.08.21.29.21.43v1.58c0 .14-.14.22-.21.14zm8.45 4.95l-4.37-2.51c-.14-.07-.22-.29-.22-.43v-1.58c0-.14.08-.21.22-.14l4.37 2.5c.14.08.21.3.21.44v1.57c0 .15-.07.22-.21.15zm15.97 9.17l-2.93-1.65c-.15-.07-.22-.29-.22-.43v-1.58c0-.14.07-.21.22-.14l2.93 1.65c.14.07.22.28.22.43v1.57c0 .15-.07.22-.22.15z"/><g opacity=".4"><path fill="#F9F9F9" d="M128.73 106.64L35.47 52.76V58l93.26 53.87z"/><path fill="#83AFF6" d="M50.22 64.37L38.26 57.5v-.93l11.96 6.88zm14.98 8.67l-9.68-5.66v-.86l9.67 5.59z"/><path fill="#E2E3E8" d="M85.68 84.86l-11.75-6.8v-.86l11.75 6.73zM95.7 90.6l-5.22-3.02v-.85l5.23 3zm16.98 9.8l-12.18-7v-.86l12.18 7.02z"/><path fill="#16C445" d="M121.78 106.28l-3.01-1.71a1.97 1.97 0 0 1-.79-1.5c0-.58.36-.87.79-.58l3 1.72c.44.28.8.93.8 1.5s-.36.86-.8.57z"/></g><g opacity=".4"><path fill="#FFF" d="M128.73 111.87L35.47 58v5.23l93.26 53.87z"/><path fill="#83AFF6" d="M49.44 69.1l-11.18-6.38v-.93l11.18 6.45zm12.67 7.38l-6.59-3.87v-.86l6.6 3.8z"/><path fill="#E2E3E8" d="M83.74 88.95l-9.8-5.66v-.86l9.8 5.66zm9.6 5.59l-2.86-1.72v-.86l2.86 1.64zm19.34 11.1l-12.18-6.95v-.93l12.18 7.02zm9.1 5.88l-3.01-1.72a1.97 1.97 0 0 1-.79-1.5c0-.58.36-.87.79-.58l3 1.72c.44.28.8.93.8 1.5 0 .58-.36.86-.8.58z"/></g><g opacity=".4"><path fill="#F9F9F9" d="M128.73 148.56L35.47 94.68v5.23l93.26 53.88z"/><path fill="#83AFF6" d="M50.22 106.28l-11.96-6.87v-.93l11.96 6.87zm14.98 8.67l-9.68-5.58v-.94l9.67 5.6z"/><path fill="#E2E3E8" d="M85.68 126.78l-11.75-6.81v-.86l11.75 6.73zm10.02 5.8l-5.22-3.08v-.86l5.23 3zm16.98 9.74l-12.18-6.95v-.93l12.18 7.02z"/><path fill="#16C445" d="M121.78 148.2l-3.01-1.72a1.97 1.97 0 0 1-.79-1.5c0-.58.36-.87.79-.58l3 1.72c.44.29.8.93.8 1.5 0 .58-.36.86-.8.58z"/></g><g opacity=".4"><path fill="#FFF" d="M128.73 153.79L35.47 99.9v5.3l93.26 53.88z"/><path fill="#83AFF6" d="M49.44 111.08l-11.18-6.44v-.86l11.18 6.37zm12.67 7.32l-6.59-3.8v-.94l6.6 3.8z"/><path fill="#E2E3E8" d="M83.74 130.86l-9.8-5.59v-.93l9.8 5.66zm9.6 5.59l-2.86-1.72v-.86l2.86 1.65zm19.34 11.1l-12.18-6.95v-.93l12.18 7.02zm9.1 5.95l-3.01-1.72a1.97 1.97 0 0 1-.79-1.5c0-.58.36-.86.79-.58l3 1.72c.44.29.8.93.8 1.5 0 .5-.36.8-.8.58z"/></g><g opacity=".4"><path fill="#F9F9F9" d="M128.73 117.1L35.47 63.23v5.3l93.26 53.8z"/><path fill="#83AFF6" d="M50.58 75.05l-12.32-7.1v-.86l12.32 7.1zM65.2 83.5l-9.68-5.59v-.93l9.67 5.59z"/><path fill="#E2E3E8" d="M85.68 95.32L73.93 88.6v-.93l11.75 6.73zm8.45 4.88l-3.65-2.15v-.86l3.65 2.14zm18.55 10.67l-12.18-6.95V103l12.18 7.02zm9.1 5.95l-3.01-1.72a1.97 1.97 0 0 1-.79-1.5c0-.58.36-.87.79-.58l3 1.72c.44.29.8.93.8 1.5 0 .5-.36.8-.8.58z"/></g><g opacity=".4"><path fill="#FFF" d="M128.73 122.33l-93.26-53.8v5.23l93.26 53.88z"/><path fill="#83AFF6" d="M45.78 77.48l-7.52-4.3v-.86l7.52 4.3zM63.62 87.8l-8.1-4.66v-.93l8.1 4.73z"/><path fill="#E2E3E8" d="M84.9 100.12l-10.97-6.3v-.93l10.96 6.3zm10.02 5.81l-4.44-2.58v-.93l4.44 2.58zm17.76 10.24l-12.18-7.02v-.93l12.18 7.02z"/><path fill="#16C445" d="M121.78 122.05l-3.01-1.72a1.97 1.97 0 0 1-.79-1.5c0-.58.36-.87.79-.58l3 1.72c.44.29.8.93.8 1.5 0 .5-.36.8-.8.58z"/></g><g opacity=".4"><path fill="#F9F9F9" d="M128.73 127.64L35.47 73.76v5.23l93.26 53.88z"/><path fill="#83AFF6" d="M52.16 86.44l-13.9-8.03v-.86l13.9 7.96zm9.95 5.73l-6.59-3.8v-.86l6.6 3.8z"/><path fill="#E2E3E8" d="M83.74 104.7l-9.8-5.65v-.93l9.8 5.66zm9.6 5.53l-2.86-1.65v-.93l2.86 1.72zm19.34 11.17l-12.18-7.02v-.86l12.18 6.95zm9.1 5.88l-3.01-1.72a1.97 1.97 0 0 1-.79-1.5c0-.58.36-.87.79-.58l3 1.72c.44.29.8.93.8 1.5 0 .58-.36.8-.8.58z"/></g><g opacity=".4"><path fill="#FFF" d="M128.73 132.87L35.47 78.99v5.23l93.26 53.88z"/><path fill="#83AFF6" d="M48.65 89.66l-10.39-5.94v-.94l10.39 5.95zm18.48 10.68l-11.6-6.74v-.86l11.6 6.74z"/><path fill="#E2E3E8" d="M86.04 111.3l-12.1-7.02v-.86l12.1 6.95zm10.46 5.95l-6.02-3.44v-.93l6.01 3.5zm16.18 9.38l-12.18-7.02v-.86l12.18 6.95z"/><path fill="#16C445" d="M121.78 132.5l-3.01-1.71a1.97 1.97 0 0 1-.79-1.5c0-.58.36-.87.79-.58l3 1.72c.44.29.8.93.8 1.5 0 .58-.36.86-.8.58z"/></g><g opacity=".4"><path fill="#F9F9F9" d="M128.73 138.1L35.47 84.22v5.23l93.26 53.88z"/><path fill="#83AFF6" d="M52.16 96.9l-13.9-7.95v-.93l13.9 8.02zm9.95 5.73l-6.59-3.8v-.86l6.6 3.8z"/><path fill="#E2E3E8" d="M83.74 115.17l-9.8-5.66v-.86l9.8 5.59zm9.6 5.52l-2.86-1.65v-.86l2.86 1.65zm19.34 11.17l-12.18-7.02v-.86l12.18 7.02zm9.1 5.88l-3.01-1.72a1.97 1.97 0 0 1-.79-1.5c0-.58.36-.87.79-.58l3 1.72c.44.29.8.93.8 1.5 0 .58-.36.86-.8.58z"/></g><g opacity=".4"><path fill="#FFF" d="M128.73 143.33L35.47 89.45v5.23l93.26 53.88z"/><path fill="#83AFF6" d="M48.65 100.12l-10.39-5.94v-.93l10.39 6.01zm18.48 10.68l-11.6-6.74v-.86l11.6 6.74z"/><path fill="#E2E3E8" d="M86.04 121.76l-12.1-7.02v-.86l12.1 6.95zm10.46 6.02l-6.02-3.51v-.86l6.01 3.44zm16.18 9.32l-12.18-7.03v-.86l12.18 7.02z"/><path fill="#16C445" d="M121.78 142.97l-3.01-1.72a1.97 1.97 0 0 1-.79-1.5c0-.58.36-.87.79-.58l3 1.72c.44.29.8.93.8 1.5 0 .58-.36.86-.8.58z"/></g></g><path fill="url(#aU)" d="M134.1 71.59L12.55 1.3a6.6 6.6 0 0 0-7.42.58 5.77 5.77 0 0 1 3.98.71l123.2 71.22a17.63 17.63 0 0 1 8.8 15.26v104.6a5.9 5.9 0 0 1-.43 2.25 6.44 6.44 0 0 0 2.8-5.33V87.85c0-6.73-3.58-12.9-9.38-16.26z" transform="translate(870 226)"/></g><path fill="#0F76BC" fill-rule="nonzero" d="M498.23 309l-.23-33.06L567.77 235l.23 33.06z" opacity=".2"/><path fill="url(#aV)" fill-rule="nonzero" d="M659 497.2l.3-236.2 88.7 51.81-.3 236.19z" transform="translate(-50 -4)"/><path fill="url(#aW)" fill-rule="nonzero" d="M553.23 316l-.23-33.06L622.77 242l.23 33.06z" transform="translate(-50 -4)"/><path fill="url(#aX)" fill-rule="nonzero" d="M553.23 317l-.23-33.06L622.77 243l.23 33.06z" opacity=".8" transform="translate(-50 -4)"/><path fill="#162B93" fill-rule="nonzero" d="M568 235v6l6-3.02z" opacity=".8"/><path fill="url(#aY)" fill-rule="nonzero" d="M550.23 315l-.23-33.06L619.77 241l.23 33.06z" opacity=".3" transform="translate(-50 -4)"/><path fill="#FFF" fill-rule="nonzero" d="M512.97 292.9c-.26-.04-.47-.2-.61-.48a2.44 2.44 0 0 1-.22-1.12 4.37 4.37 0 0 1 .83-2.55c.27-.35.58-.63.94-.84.23-.13.44-.21.66-.25.2-.03.38 0 .5.08l-.27 1.02a.97.97 0 0 0-.87.1c-.28.16-.5.4-.64.72a2.8 2.8 0 0 0-.22 1.18c0 .47.07.78.22.93.15.15.36.15.64-.01.3-.18.59-.48.87-.92l.28.7a3.15 3.15 0 0 1-1.17 1.18c-.36.22-.67.3-.94.26zm6.36-3.45l-.97.56-.44-1.28c-.06-.15-.18-.16-.37-.05l-.33.19v1.8l-.9.52v-4.63l1.61-.93c.42-.24.73-.3.94-.18.21.12.31.4.31.84a2.38 2.38 0 0 1-.7 1.71.3.3 0 0 1 .25.03.5.5 0 0 1 .19.28l.4 1.14zm-1.12-2.18a.8.8 0 0 0 .13-.45c0-.18-.05-.28-.13-.31-.09-.03-.23.01-.43.13l-.57.33v1l.57-.34c.2-.11.34-.23.43-.36zm2.35 1.46v-4.63l2.46-1.42v.93l-1.57.92v.87l1.47-.86v.94l-1.47.85v.95l1.57-.91v.93zm6.29-3.65l-.3-.78-1.54.89-.3 1.13-.91.53 1.6-5.56.73-.42 1.61 3.69-.9.52zm-1.54-.98l.94-.54-.47-1.2-.47 1.74zm3.73-.3v-3.63l-1.02.6v-1l2.97-1.72v.99l-1.03.6v3.63zm3.09-1.79v-4.63l2.46-1.42v.93l-1.57.92v.87l1.47-.86v.94l-1.47.85v.95l1.57-.91v.93zm10.69-6.21l-.3-.78-1.53.9-.3 1.12-.92.53 1.62-5.56.71-.41 1.62 3.68-.9.52zm-1.54-.97l.94-.55-.47-1.19-.47 1.74zm4.06-.73c-.27-.04-.47-.2-.61-.47a2.44 2.44 0 0 1-.22-1.12 4.37 4.37 0 0 1 .83-2.56c.27-.35.58-.63.94-.84.23-.13.44-.2.66-.24.2-.03.38 0 .5.07l-.27 1.03a.97.97 0 0 0-.87.1c-.28.16-.5.4-.64.72a2.8 2.8 0 0 0-.22 1.18c0 .47.07.78.22.93.15.15.36.15.64-.02.3-.17.59-.48.87-.91l.28.7a3.14 3.14 0 0 1-1.17 1.18c-.36.21-.67.3-.94.25zm4.02-2.33c-.27-.04-.47-.2-.62-.47a2.44 2.44 0 0 1-.21-1.13 4.37 4.37 0 0 1 .83-2.55c.26-.35.58-.63.93-.84.23-.13.45-.21.66-.24.21-.03.38-.01.51.07l-.27 1.03a.97.97 0 0 0-.88.1c-.27.15-.49.4-.64.72a2.8 2.8 0 0 0-.22 1.18c0 .46.08.77.22.93.15.15.37.14.64-.02.3-.17.6-.48.88-.91l.27.7a3.14 3.14 0 0 1-1.17 1.18c-.35.21-.67.3-.93.25zm4-2.31c-.27-.04-.47-.2-.6-.48a2.55 2.55 0 0 1-.22-1.14 4.44 4.44 0 0 1 .82-2.55 3 3 0 0 1 .92-.82c.35-.2.65-.29.91-.24.26.04.46.2.6.47.14.27.21.65.21 1.13a4.37 4.37 0 0 1-.8 2.56c-.27.34-.57.62-.92.82-.36.2-.66.29-.92.25zm1.52-1.9c.15-.33.22-.73.22-1.2s-.07-.79-.22-.95c-.14-.16-.35-.16-.6-.01a1.5 1.5 0 0 0-.6.71c-.15.33-.23.73-.23 1.2 0 .48.08.8.22.96.15.16.35.16.6.01.26-.15.47-.39.61-.72zm2.8-.84c-.26-.19-.39-.61-.39-1.27v-2.67l.9-.52v2.72c0 .34.05.56.16.67.1.11.27.11.47 0 .2-.13.37-.3.47-.55.11-.24.17-.53.17-.86v-2.72l.9-.52v2.68c0 .64-.14 1.22-.4 1.71-.26.5-.64.9-1.14 1.18-.5.3-.88.34-1.14.15zm6.28-7.82l.85-.49v4.63l-.67.39-1.57-1.72v2.62l-.84.5v-4.63l.66-.38 1.56 1.7zm3.03 2.87v-3.63l-1.03.6v-1l2.97-1.72v.99l-1.02.6v3.63z"/><path fill="#FFF" fill-rule="nonzero" d="M508.07 289.99a.83.83 0 0 1-.62-.48 2.43 2.43 0 0 1-.21-1.12 4.34 4.34 0 0 1 .83-2.55c.27-.35.59-.63.95-.84.23-.13.45-.21.66-.25.22-.03.39 0 .52.08l-.28 1.02a.98.98 0 0 0-.88.1c-.28.16-.5.4-.64.72-.15.33-.23.72-.23 1.18 0 .47.08.78.23.93.14.15.36.15.64-.01.3-.18.6-.48.88-.92l.28.7c-.13.24-.3.46-.52.67-.21.22-.43.39-.66.52-.36.2-.68.29-.95.25zm6.41-3.45l-.97.56-.45-1.28c-.05-.15-.17-.16-.37-.05l-.33.19v1.8l-.9.52v-4.63l1.61-.93c.42-.24.74-.3.95-.18.21.12.32.4.32.84a2.36 2.36 0 0 1-.72 1.71.3.3 0 0 1 .26.03.5.5 0 0 1 .19.28l.41 1.14zm-1.13-2.18a.79.79 0 0 0 .13-.45c0-.18-.04-.28-.13-.31-.08-.03-.22.01-.42.13l-.58.33v1l.58-.34c.2-.11.33-.23.42-.36zm2.38 1.46v-4.63l2.48-1.42v.93l-1.59.92v.87l1.49-.86v.94l-1.49.85v.95l1.59-.92v.94zm6.34-3.65l-.31-.78-1.54.9-.31 1.12-.92.53 1.63-5.56.72-.42 1.63 3.69-.9.52zm-1.56-.98l.95-.54-.47-1.2-.48 1.74zm3.77-.29v-3.64l-1.04.6v-1l3-1.72v.99l-1.03.6v3.63zm3.12-1.8v-4.62l2.48-1.43v.93l-1.59.92v.87l1.49-.86v.94l-1.49.85v.95l1.59-.91v.93zm10.78-6.2l-.31-.79-1.54.9-.31 1.13-.92.52 1.63-5.56.72-.41 1.63 3.68-.9.52zm-1.56-.98l.95-.55-.47-1.19-.48 1.74zm4.09-.72a.87.87 0 0 1-.62-.48 2.42 2.42 0 0 1-.21-1.13 4.34 4.34 0 0 1 .83-2.55c.27-.35.59-.63.95-.84.23-.13.45-.2.66-.24.22-.03.39 0 .52.07l-.28 1.03a.98.98 0 0 0-.88.1c-.28.16-.5.4-.64.72-.15.32-.23.72-.23 1.18 0 .47.08.78.23.93.14.15.36.15.64-.02.3-.17.6-.48.88-.91l.28.7c-.13.23-.3.46-.52.67-.21.21-.43.39-.66.52-.36.2-.68.29-.95.24zm4.05-2.34a.83.83 0 0 1-.62-.47 2.43 2.43 0 0 1-.21-1.13 4.34 4.34 0 0 1 .83-2.55c.27-.35.59-.63.95-.84.23-.13.45-.21.66-.24.21-.03.39 0 .52.07l-.28 1.03a.98.98 0 0 0-.88.1c-.28.15-.5.4-.65.72-.15.32-.22.71-.22 1.18 0 .46.07.77.22.93.15.15.37.14.65-.02.3-.17.6-.48.88-.91l.28.7a3.14 3.14 0 0 1-1.18 1.19c-.36.2-.68.28-.95.24zm4.04-2.31c-.27-.04-.47-.2-.61-.48a2.53 2.53 0 0 1-.21-1.14 4.4 4.4 0 0 1 .82-2.55c.26-.34.57-.62.92-.82.36-.2.67-.29.93-.24.26.04.46.2.6.47.14.27.21.65.21 1.13a4.25 4.25 0 0 1-.81 2.56 3.1 3.1 0 0 1-.93.82c-.35.2-.66.29-.92.25zm1.54-1.9c.15-.33.22-.73.22-1.2s-.07-.79-.22-.95c-.15-.16-.36-.16-.62-.01a1.5 1.5 0 0 0-.6.71c-.15.33-.23.73-.23 1.2 0 .48.08.8.22.96.15.16.35.16.61.01.27-.15.47-.39.62-.72zm2.82-.84c-.26-.19-.4-.6-.4-1.27v-2.67l.9-.52v2.72c0 .34.06.56.17.67.11.12.27.11.48 0 .2-.13.36-.3.48-.55.1-.24.16-.53.16-.86v-2.72l.9-.52v2.68c0 .65-.13 1.22-.4 1.72-.26.5-.64.88-1.14 1.17-.5.3-.9.34-1.15.15zm6.32-7.81l.87-.5v4.63l-.68.39-1.58-1.72v2.63l-.85.49v-4.63l.67-.38 1.57 1.7zm3.06 2.86v-3.63l-1.03.6v-1l3-1.72v.99l-1.04.6v3.63z" opacity=".1"/><g fill-rule="nonzero"><path fill="url(#aZ)" d="M63.22 11.5c2.16-2.49 3.08-6.28 2.03-8.82-1.12-2.72-4.09-2.94-6.62-.5-.26.25-.5.53-.73.82L.45 65.62v15.96l62.64-69.94.13-.14z" opacity=".2" transform="translate(455 319)"/><path fill="url(#ba)" d="M204.84 12.06c-1.58-1.53-3.33-2-4.7-1.49-.25.1-.5.22-.73.35l-45.2 25.52c-7.68 4.34-21.13 4.29-28.78-.11L63.72.82l-.02.04C62.3.09 60.36.5 58.63 2.18c-2.53 2.44-3.67 6.63-2.54 9.36.33.8.83 1.39 1.43 1.75l-.02.04 60.91 35.05c6.03 3.47 13.8 5.2 21.55 5.2 7.62 0 15.22-1.67 21.17-5.03l44.79-25.29-.02-.04a3.57 3.57 0 0 0 1.49-1.8c1.12-2.72-.02-6.91-2.55-9.36z" transform="translate(455 319)"/><path fill="url(#bb)" d="M65.25 2.68c1.13 2.73-.01 6.92-2.54 9.36-2.53 2.45-5.5 2.22-6.62-.5-1.13-2.73.01-6.91 2.54-9.36 2.53-2.44 5.5-2.22 6.62.5z" transform="translate(455 319)"/><path fill="#1537A0" d="M653.23 331.57c-1.13 2.72.01 6.91 2.54 9.36 2.53 2.44 5.5 2.21 6.62-.5 1.12-2.73-.02-6.92-2.55-9.37-2.53-2.44-5.49-2.21-6.61.5z" opacity=".2"/></g><g fill-rule="nonzero" opacity=".2"><path fill="url(#bc)" d="M242.66 65.37c-1.59-1.53-3.34-2.02-4.7-1.5h-.01c-.25.1-.5.22-.73.36L192 89.8c-7.7 4.35-21.15 4.3-28.8-.11L8.5.55 8.47.6C7.07-.18 5.14.24 3.4 1.9.88 4.36-.26 8.56.86 11.3c.33.81.83 1.4 1.43 1.76l-.02.04 153.9 88.68c6.04 3.47 13.8 5.22 21.57 5.22 7.62 0 15.23-1.68 21.18-5.05l44.8-25.35-.01-.04a3.58 3.58 0 0 0 1.5-1.8c1.12-2.73-.02-6.93-2.55-9.38z" transform="translate(-50 239)"/><path fill="#1537A0" d="M186.04 304.88c-1.13 2.72.01 6.92 2.54 9.37 2.53 2.45 5.5 2.23 6.62-.5 1.13-2.73-.01-6.93-2.54-9.38-2.53-2.45-5.5-2.22-6.62.5z"/></g><path fill="url(#bd)" fill-rule="nonzero" d="M242.67 65.74c-1.59-1.54-3.34-2.03-4.7-1.5a5 5 0 0 0-.74.35L192 90.29c-7.69 4.36-21.15 4.3-28.8-.13L8.5.63l-.02.03C7.08-.1 5.15.32 3.42 2 .89 4.46-.25 8.68.87 11.42c.34.81.83 1.4 1.43 1.76l-.02.04 153.9 89.08c6.04 3.5 13.8 5.24 21.57 5.24 7.62 0 15.23-1.69 21.18-5.07l44.81-25.46-.02-.04a3.6 3.6 0 0 0 1.5-1.81c1.12-2.74-.02-6.96-2.55-9.42z" opacity=".2" transform="translate(904 199)"/><path fill="#162B93" fill-rule="nonzero" d="M266.76 232L317 204.14 266.19 175 166 232z" opacity=".1"/><g fill-rule="nonzero"><path fill="url(#be)" d="M75.84.74c1.56-.9 2.84-.15 2.83 1.65l-.2 49a6.3 6.3 0 0 1-2.87 4.9L3.3 97.56c-1.57.89-2.85.15-2.84-1.65l.2-49c.02-1.8 1.3-4 2.87-4.9L75.83.75z" opacity=".8" transform="translate(212 135)"/><path fill="url(#bf)" d="M.6 63.29l78-44.53.04-10.5-78 44.54z" opacity=".3" transform="translate(212 135)"/><g opacity=".1"><path fill="url(#bg)" d="M11.92 16.25l-11.4 6.5a1 1 0 0 0-.45.77l-.03 3.85c0 .28.2.4.45.26l11.39-6.5a.99.99 0 0 0 .45-.78l.03-3.84c0-.29-.2-.4-.44-.26z" transform="translate(218.24 187.89)"/><path fill="url(#bh)" d="M26.42 16.78L.52 31.52a1 1 0 0 0-.45.77l-.03 3.85c0 .28.2.4.45.26l25.9-14.74a.99.99 0 0 0 .44-.78l.03-3.84c0-.29-.2-.4-.44-.26z" opacity=".5" transform="translate(218.24 187.89)"/><path fill="url(#bi)" d="M25.93 8.37l-11.4 6.5a.99.99 0 0 0-.44.77l-.03 3.85c0 .28.2.4.44.26l11.4-6.5a.99.99 0 0 0 .44-.78l.04-3.85c0-.28-.2-.4-.45-.25z" transform="translate(218.24 187.89)"/><path fill="url(#bj)" d="M39.94.48l-11.39 6.5a.99.99 0 0 0-.45.78l-.03 3.84c0 .29.2.4.45.26l11.39-6.5a1 1 0 0 0 .45-.77l.03-3.85c0-.28-.2-.4-.45-.26z" transform="translate(218.24 187.89)"/></g><g opacity=".3"><path fill="url(#bk)" d="M11 .97a10.55 10.55 0 0 0-4.85 8.4c0 3.18 2.17 4.32 4.84 2.8 2.68-1.53 4.85-5.35 4.85-8.4 0-3.18-2.17-4.32-4.85-2.8z" opacity=".4" transform="translate(268.13 175.44)"/><path fill="url(#bl)" d="M5.2 5.24a10.55 10.55 0 0 0-4.85 8.4c0 3.18 2.17 4.32 4.84 2.8 2.68-1.53 4.85-5.35 4.85-8.4 0-3.18-2.17-4.33-4.85-2.8z" opacity=".4" transform="translate(268.13 175.44)"/></g></g><g fill-rule="nonzero"><path fill="#FF6482" d="M313.01 171.63l-71.87 41.15a6.27 6.27 0 0 0-2.84 4.87l-.2 28.17c-.01 1.79 1.26 2.53 2.81 1.64l71.87-41.15a6.27 6.27 0 0 0 2.84-4.88l.2-28.16c.01-1.8-1.25-2.53-2.8-1.64z" opacity=".9"/><path fill="#FFF" d="M258.91 217.34l2.43-1.4c.58-.34 1.03-.41 1.35-.23.32.19.48.6.48 1.24a3.6 3.6 0 0 1-1.83 3.13l-1.08.62v2.65l-1.35.78v-6.8zm2.25 1.5c.5-.29.76-.67.76-1.15 0-.24-.06-.39-.18-.44-.13-.06-.32 0-.58.14l-.9.52v1.46l.9-.53zm7.14-.13l-.45-1.14-2.26 1.3-.45 1.67-1.35.77 2.38-8.17 1.06-.6 2.4 5.4-1.33.77zm-2.28-1.43l1.4-.8-.7-1.75-.7 2.55zm9.13-9.32L273 213.4v2.6l-1.35.78v-2.6l-2.14-2.96 1.51-.88 1.3 1.97 1.3-3.47zm7.63-4.41l1.27-.73v6.8l-1 .56-2.3-2.52v3.86l-1.26.72v-6.8l.98-.56 2.31 2.5v-3.83zm4.4 3.91c-.38-.06-.68-.3-.89-.7-.2-.4-.3-.96-.3-1.67a5.92 5.92 0 0 1 1.2-3.75c.38-.5.83-.9 1.35-1.2.52-.3.97-.42 1.36-.36.38.06.68.3.88.7.2.4.3.95.3 1.66 0 .7-.1 1.38-.3 2.03-.2.65-.5 1.22-.88 1.73-.39.5-.84.9-1.36 1.2-.52.3-.97.42-1.36.36zm2.26-2.78c.22-.5.33-1.08.33-1.78 0-.68-.11-1.14-.33-1.38-.22-.23-.52-.24-.9-.02a2.2 2.2 0 0 0-.9 1.05 4.3 4.3 0 0 0-.31 1.76c0 .7.1 1.17.32 1.4.21.24.51.25.9.03.37-.22.67-.58.9-1.06zm9.71-10.58l1.28-.74-1.83 7.85-1.06.61-1.07-3.42-1.09 4.67-1.06.61-1.82-5.74 1.37-.8 1.04 3.69 1.14-4.94.91-.53 1.1 3.73z"/></g><path fill="#0F76BC" fill-rule="nonzero" d="M455 564l61-35.36-.32-299.64-60.36 34.4z" opacity=".1"/><g fill-rule="nonzero" opacity=".2"><path fill="url(#bm)" d="M.43.27l5.55 3.2a8.24 8.24 0 0 1 4.19 7.17c0 1.45-.37 2.38-1.12 2.81-.74.43-1.76.27-3.07-.49L3.5 11.53v6.08L.43 15.83V.27zm5.14 9.4c1.15.67 1.73.45 1.73-.64 0-.55-.14-1.05-.42-1.5a3.68 3.68 0 0 0-1.31-1.18L3.5 5.15v3.32l2.07 1.2z" transform="translate(280 388)"/><path fill="url(#bn)" d="M19.07 26.5l-1.03-3.82-5.17-2.99-1.04 2.62-3.07-1.78 5.45-12.4 2.76 1.64 5.47 18.73-3.37-2zm-5.2-9.31l3.17 1.84-1.59-5.84-1.59 4z" transform="translate(280 388)"/><path fill="url(#bo)" d="M33.88 19.3l-5.14 6.72v6.62l-3.09-1.78v-5.97l-5.24-13.06 3.47 2 3.34 8.26 3.55-4.48z" transform="translate(280 388)"/></g><g fill-rule="nonzero" opacity=".3"><path fill="url(#bp)" d="M83.43 106.05c-5.94 0-11.57-1.36-15.87-3.84L7.98 67.85C3 64.98.12 60.7.12 56.13c0-4.58 2.85-8.86 7.83-11.75L77.5 4.06C81.8 1.56 87.44.19 93.38.19c5.95 0 11.6 1.37 15.9 3.87l59.45 34.5c4.98 2.9 7.83 7.18 7.83 11.76 0 4.57-2.86 8.85-7.85 11.74l-69.34 40.12c-4.31 2.5-9.97 3.87-15.93 3.87zm9.94-97.06c-4.36 0-8.54.98-11.48 2.69L12.35 52c-2.16 1.26-3.45 2.8-3.44 4.12 0 1.32 1.3 2.86 3.46 4.1l59.58 34.36c2.94 1.7 7.12 2.67 11.48 2.67 4.38 0 8.58-.98 11.53-2.69l69.34-40.13c2.17-1.25 3.46-2.79 3.46-4.12s-1.29-2.87-3.45-4.13l-59.45-34.5c-2.94-1.7-7.13-2.69-11.49-2.69z" opacity=".1" transform="translate(169 211)"/><path fill="url(#bq)" d="M83.43 106.34c-5.94 0-11.57-1.37-15.87-3.84L7.98 68.14C3 65.26.12 61 .12 56.42c0-4.58 2.85-8.86 7.83-11.75L77.5 4.34C81.79 1.85 87.43.48 93.37.48c5.95 0 11.6 1.37 15.9 3.87l59.45 34.5c4.98 2.9 7.83 7.18 7.83 11.75 0 4.58-2.86 8.86-7.85 11.74l-69.34 40.13c-4.31 2.5-9.97 3.87-15.93 3.87zm9.94-97.06c-4.36 0-8.54.98-11.48 2.68L12.35 52.3c-2.16 1.25-3.45 2.8-3.44 4.11 0 1.33 1.3 2.86 3.46 4.11l59.58 34.35c2.94 1.7 7.12 2.67 11.48 2.67 4.38 0 8.58-.98 11.53-2.68l69.34-40.13c2.17-1.25 3.46-2.8 3.46-4.12 0-1.33-1.29-2.88-3.45-4.13l-59.45-34.5c-2.94-1.71-7.13-2.69-11.49-2.69z" opacity=".1" transform="translate(169 226.56)"/><path fill="url(#br)" d="M83.43 106.1c-5.94 0-11.57-1.36-15.87-3.84L7.98 67.91C3 65.03.12 60.76.12 56.18c0-4.57 2.85-8.85 7.83-11.74L77.5 4.1C81.8 1.6 87.44.23 93.38.23c5.95 0 11.6 1.38 15.9 3.88l59.45 34.5c4.98 2.9 7.83 7.17 7.83 11.75s-2.86 8.86-7.85 11.74l-69.34 40.13c-4.31 2.5-9.97 3.86-15.93 3.86zm9.94-97.05c-4.36 0-8.54.98-11.48 2.68L12.35 52.06c-2.16 1.25-3.45 2.79-3.44 4.11 0 1.33 1.3 2.86 3.46 4.1l59.58 34.36c2.94 1.7 7.12 2.67 11.48 2.67 4.38 0 8.58-.98 11.53-2.68l69.34-40.13c2.17-1.25 3.46-2.8 3.46-4.12 0-1.33-1.29-2.88-3.45-4.13l-59.45-34.5c-2.94-1.71-7.13-2.69-11.49-2.69z" opacity=".1" transform="translate(169 242.63)"/><path fill="url(#bs)" d="M83.43 105.87c-5.94 0-11.57-1.36-15.87-3.84L7.98 67.68C3 64.8.12 60.53.12 55.95c0-4.57 2.85-8.85 7.83-11.74L77.5 3.88C81.8 1.38 87.44.01 93.38.01c5.95 0 11.6 1.38 15.9 3.88l59.45 34.5c4.98 2.9 7.83 7.17 7.83 11.75s-2.86 8.86-7.85 11.74l-69.34 40.13c-4.31 2.5-9.97 3.86-15.93 3.86zm9.94-97.05c-4.36 0-8.54.97-11.48 2.68L12.35 51.83c-2.16 1.25-3.45 2.79-3.44 4.11 0 1.32 1.3 2.86 3.46 4.1L71.95 94.4c2.94 1.7 7.12 2.67 11.48 2.67 4.38 0 8.58-.98 11.53-2.69l69.34-40.12c2.17-1.26 3.46-2.8 3.46-4.13 0-1.32-1.29-2.87-3.45-4.12l-59.45-34.5c-2.94-1.71-7.13-2.7-11.49-2.7z" opacity=".1" transform="translate(169 258.7)"/></g><g transform="translate(239 225)"><mask id="bu" fill="#fff"><use xlink:href="#bt"/></mask><g opacity=".3"><g fill-rule="nonzero" mask="url(#bu)" opacity=".6"><path fill="url(#bv)" d="M200.85 2.19L197.3.1.33 115.38v4.6l3.56 2.06L200.86 6.78" transform="translate(3.62 -31.16)"/><path fill="url(#bw)" d="M218.44 4.86l-3.56-2.07L17.92 118.06v4.59l3.56 2.06L218.44 9.45" transform="translate(3.62 -31.16)"/></g></g></g><g fill-rule="nonzero"><path fill="#162B93" d="M254.76 303.65l-5.2 23.2-70.67 22.9z" opacity=".5"/><path fill="url(#bx)" d="M112.94 30.23L91.35 17.76 4.9 57.75l75.87-46.1L63.12 1.63C59.55-.43 56.94.01 52.4 4.65L.02 60.71l110.6-22.66c7.2-1.82 10.1-3.33 2.32-7.82z" opacity=".9" transform="translate(174 292)"/></g><g fill-rule="nonzero" opacity=".6"><path fill="url(#by)" d="M142.55 1.09L141.3.35.27 82.28v1.62l1.26.73L142.56 2.71" transform="translate(89 262)"/><path fill="#FFF" d="M91.8 344.28l-1.26-.73-1.27.73v1.62l1.26.73 1.27-.73v-1.62z"/></g><g opacity=".5"><path fill="url(#a)" fill-rule="nonzero" d="M129.75 44.64l-.2 144.16-68.38 39.08.25-220.76z" opacity=".8" transform="translate(269 322)"/><g fill-rule="nonzero"><path fill="#162B93" d="M269.25 370.2l68.42-39.1 61.08 35.54-68.38 39.08z" opacity=".8"/><path fill="url(#bz)" d="M.05 183.52l.2-144.16L61.37 74.9l-.2 144.16z" transform="translate(269 330.83)"/><path fill="url(#bA)" d="M129.75 35.8l-.2 144.17-68.38 39.08.2-144.16z" opacity=".8" transform="translate(269 330.83)"/></g><path fill="url(#bB)" fill-rule="nonzero" d="M7.4 52.34l53.97 31.38 61.56-35.19-54.45-31.5z" opacity=".1" transform="translate(269 322)"/><path fill="#1537A0" fill-rule="nonzero" d="M330.42 397.95l-61.3-35.27v-.98l61.3 35.28z"/><path fill="url(#bC)" fill-rule="nonzero" d="M61.42 74.98l68.3-39.37v.98l-68.3 39.36z" transform="translate(269 322)"/><path stroke="url(#bD)" stroke-linejoin="round" stroke-width="1.56" d="M.62 48.18L68.65 9.32l60.74 35.33-68 38.86z" transform="translate(269 322)"/><path fill="url(#bE)" fill-rule="nonzero" d="M68.48.25l61.24 35.44-68.24 39.37L.11 39.78z" transform="translate(269 322)"/></g><path fill="url(#bF)" fill-rule="nonzero" d="M898 277l-.25 175.44L815 500l.25-175.44z" opacity=".6" transform="translate(-50 -4)"/><path fill="#FF6482" fill-rule="nonzero" d="M511.27 111.47L411.73 53.5c-2.05-1.2-3.73-.22-3.73 2.17v22.39a8.39 8.39 0 0 0 3.73 6.52L446.59 105l-.06.06 6.85 4.02 7.95 23.1 7.94-13.82 12.29 7.08v-.07l29.7 17.12c2.06 1.18 3.74.2 3.74-2.19v-22.33a8.36 8.36 0 0 0-3.73-6.51z" opacity=".9"/><path fill="#CE455F" fill-rule="nonzero" d="M440.58 160.83c-.42.35-.83.72-1.24 1.08l-10.1-5.8 2.89-1.67 7.49 3.37.02-.02-5.83-4.32 2.84-1.64 8.84 5.12c-.53.38-1.04.77-1.55 1.16l-7.75-4.49-.03.02 6.79 5.23-1.43 1.16a2980.4 2980.4 0 0 1-9.29-4.01l8.35 4.8zm8.29-9c.91.54 1.3 1.06 1.19 1.56-.12.5-.5.97-1.16 1.4a4.9 4.9 0 0 1-2.15.8c-.83.1-1.74-.13-2.71-.68l-3.98-2.3c-.5-.3-.85-.58-1.03-.85a1.06 1.06 0 0 1-.23-.77c.05-.26.19-.5.41-.71a7.1 7.1 0 0 1 1.92-1.1 4.58 4.58 0 0 1 3.91.44l3.83 2.2zm-2.53 2.14c.18.1.37.16.57.18.22.03.44-.02.64-.15.21-.14.29-.27.23-.41a.87.87 0 0 0-.35-.32l-4.78-2.76c-.18-.1-.38-.18-.58-.22-.21-.02-.43.04-.66.17-.21.12-.3.25-.25.37.05.13.17.24.35.35l4.83 2.79zm-2.66-6.18l2.12-1.22 6.9 3.41h.02c-1.85-1.4-3.7-2.79-5.57-4.18l1.85-1.06 6.93 5.6c-.88.48-1.76.98-2.61 1.48l-9.64-4.03zm14.65 1.26l-8.45-4.82 1.97-1.12 8.58 4.88-2.1 1.06zm3.1-1.55l-8.65-4.92 4.1-2.34 1.37.78-2.17 1.2 1.96 1.1 2.15-1.11 1.37.78-2.19 1.1 2.9 1.64c.77-.37 1.55-.73 2.34-1.09l1.38.79a121.8 121.8 0 0 0-4.56 2.07zm2.81-7.5l-1.37-.78c-.48-.28-.93-.32-1.34-.1-.24.12-.33.24-.3.36.05.12.19.24.44.38.2.1.42.18.68.23.26.05.55.08.87.1h1.02l1.12-.02c.8-.02 1.61.04 2.46.17.83.13 1.65.43 2.43.87 1.88 1.08 1.76 1.98-.26 2.75-.77.31-1.6.5-2.49.57-.9.07-1.74-.1-2.52-.54l-1.7-.97 2.16-1.02 1.65.95c.49.28.95.33 1.39.13.22-.08.33-.18.34-.3 0-.1-.13-.23-.41-.4a4.5 4.5 0 0 0-1.88-.54c-.34-.02-.7-.03-1.07-.03l-1.11.02c-.76.04-1.53 0-2.31-.08a5.85 5.85 0 0 1-2.28-.73c-.83-.49-1.18-.96-1.07-1.43.12-.46.56-.92 1.34-1.37.7-.4 1.43-.66 2.23-.75a4.2 4.2 0 0 1 2.5.58l1.6.92-2.12 1.04z" opacity=".7"/><g fill-rule="nonzero"><path fill="#191C42" d="M830.09 229.54l-112.9 65.26a7.57 7.57 0 0 1-6.84 0l-75.5-43.57c-1.88-1.09-1.88-2.86 0-3.95l112.99-65.22a7.57 7.57 0 0 1 6.83 0l75.41 43.53c1.88 1.08 1.88 2.86 0 3.95z" opacity=".1"/><path fill="#FFF" d="M710.35 282.33a7.57 7.57 0 0 0 6.83 0l112.9-65.27c1.88-1.08 1.88-2.86 0-3.94l-75.41-43.54a7.57 7.57 0 0 0-6.83 0l-113 65.23c-1.87 1.08-1.87 2.86 0 3.94l75.51 43.58z" opacity=".7"/><path fill="url(#bG)" d="M63.2 205a7.07 7.07 0 0 0 6.38 0l105.98-61.26c1.75-1.01 1.75-2.67 0-3.68l-37.64-21.65a7.07 7.07 0 0 0-6.38 0L25.48 179.64c-1.76 1.01-1.76 2.67 0 3.68L63.2 205z" opacity=".4" transform="translate(616 55)"/><path fill="url(#bH)" d="M130.5 203.49c1.13.65 2.97.64 4.1 0l34.58-20.07c1.12-.66 1.12-1.72 0-2.37l-24.15-13.89a4.54 4.54 0 0 0-4.1 0l-34.63 20.05c-1.13.65-1.13 1.72 0 2.37l24.2 13.9z" opacity=".4" transform="translate(616 55)"/><path fill="url(#bI)" d="M215.49 160.13v4.42c.02.73-.45 1.47-1.4 2.02l-112.9 65.26a7.57 7.57 0 0 1-6.84 0l-75.5-43.57c-.92-.52-1.38-1.22-1.4-1.91h-.01v-4.51c.03.7.49 1.39 1.4 1.91l75.51 43.58a7.57 7.57 0 0 0 6.83 0l112.9-65.27c.92-.53 1.39-1.23 1.4-1.93z" transform="translate(616 55)"/><path fill="#282E5B" d="M732.83 55.69c1.89-1.09 3.7 0 4 2.43l13.79 105.55c.32 2.42-.97 5.3-2.86 6.39l-113.57 65.3c-1.89 1.1-3.7 0-4.01-2.43l-13.79-105.6c-.32-2.42.97-5.3 2.86-6.38L732.83 55.7z"/><path fill="#191C42" d="M732.83 55.69l-113.58 65.26c-1.89 1.09-3.18 3.96-2.86 6.39l13.79 105.6c.31 2.42 2.12 3.51 4.01 2.43l113.57-65.31c1.89-1.1 3.18-3.97 2.86-6.4L736.84 58.13c-.32-2.42-2.12-3.52-4.01-2.43zm13.5 107.72c.1.85-.55 2.31-1.22 2.7l-111.06 63.86L620.7 127.6c-.11-.85.54-2.31 1.2-2.7l111.07-63.82 13.36 102.33z"/><g opacity=".7"><path fill="#191C42" d="M719.56 73.59c1.5-.87 2.93 0 3.18 1.93l10.92 83.64c.25 1.92-.77 4.2-2.26 5.06L639.6 217c-1.5.86-2.93-.01-3.18-1.93l-10.92-83.69c-.26-1.92.77-4.2 2.26-5.06l91.8-52.73z" opacity=".4"/><g opacity=".3"><path fill="url(#bJ)" d="M35.19.31c.61-.35 1.2 0 1.3.8l4.46 34.13c.1.78-.32 1.71-.93 2.07L6.06 56.85c-.61.35-1.2 0-1.3-.79L.3 21.91c-.1-.78.32-1.71.93-2.07L35.19.31z" transform="translate(682.98 81.49)"/><path fill="url(#bK)" d="M34.97.5c.62-.35 1.2 0 1.3.79l.83 6.38c.1.78-.3 1.71-.92 2.06L2.22 29.28c-.61.35-1.2 0-1.3-.79l-.83-6.4c-.1-.78.3-1.7.92-2.06L34.97.5z" transform="translate(645.08 138.1)"/><path fill="url(#bL)" d="M16.28.51c.28-.16.54 0 .59.36l.57 4.4c.05.36-.14.78-.42.94L1.6 15.1c-.28.16-.55 0-.6-.35l-.57-4.42c-.05-.35.14-.78.42-.93L16.28.5z" transform="translate(658.58 106.94)"/><path fill="url(#bM)" d="M15.87.1c.28-.16.54 0 .6.35l.57 4.4c.04.36-.15.79-.42.95L1.19 14.68c-.28.16-.55 0-.6-.36L.03 9.9c-.05-.36.14-.78.42-.94L15.87.1z" transform="translate(643.52 139.66)"/></g><path fill="#191C42" d="M724.15 122.62c.28-.16.55 0 .6.36l.57 4.4c.04.36-.15.78-.42.94l-15.43 8.88c-.28.16-.54 0-.6-.36l-.57-4.4c-.04-.36.15-.79.42-.95l15.43-8.87z" opacity=".4"/></g><path fill="#191C42" d="M699.65 113.79l5.03 38.52.89 6.82a2.87 2.87 0 0 1-.63 2.1c-.1.12-.21.22-.33.3-.06.06-.12.1-.18.14l-26.48 15.19c-.18.1-.37.16-.55.17h-.01a.87.87 0 0 1-.56-.2 1.09 1.09 0 0 1-.18-.18c-.08-.1-.14-.22-.2-.36a1.82 1.82 0 0 1-.1-.4l-.89-6.82-5.03-38.52-1.92-14.7a2.69 2.69 0 0 1 .24-1.47 2.75 2.75 0 0 1 .63-.88c.09-.08.18-.14.27-.2l26.47-15.23c.19-.1.38-.16.55-.17.12 0 .23.03.34.07a.6.6 0 0 1 .18.09c.27.18.47.52.53.98l1.93 14.75z" opacity=".5"/><path fill="url(#bN)" d="M69.13 130.02c-.1 0-.2-.02-.28-.04-.69-.18-1.18-.83-1.3-1.68l-8.22-63.02a3.38 3.38 0 0 1 .75-2.54c.19-.24.4-.42.64-.56L88.5 46.2c.29-.16.6-.24.9-.22.66.04 1.23.52 1.46 1.27.05.14.08.3.1.45l8.24 63.07a3.02 3.02 0 0 1-.06 1.1 3.45 3.45 0 0 1-.72 1.48c-.18.2-.39.39-.6.51l-27.8 15.95c-.29.17-.59.24-.9.22zm20.4-83.05a.78.78 0 0 0-.43.12L61.3 63.08c-.15.09-.3.21-.44.38a2.6 2.6 0 0 0-.57 1.87l8.23 63.03c.03.17.1.58.39.65.1.03.25.04.5-.11l27.8-15.94a1.62 1.62 0 0 0 .45-.4 2.66 2.66 0 0 0 .56-1.86l-8.24-63.07a1 1 0 0 0-.06-.26c-.12-.39-.33-.4-.4-.4z" transform="translate(616 55)"/><path fill="url(#bO)" d="M20.77.15c.27-.16.54 0 .58.36l1.6 12.18c.04.35-.15.77-.43.93L2.3 25.32c-.27.15-.54-.01-.59-.37L.12 12.77c-.04-.36.15-.78.42-.94L20.77.15z" opacity=".2" transform="translate(643.52 158.88)"/><path fill="#FFF" d="M711.52 105.02c.79-.45 1.54 0 1.68 1.02l8.23 63.07c.13 1.02-.4 2.22-1.2 2.68l-27.78 15.94c-.8.45-1.55 0-1.69-1.02l-8.23-63.03c-.13-1.01.41-2.21 1.2-2.67l27.79-15.99z"/><path fill="url(#bP)" d="M30.73 1.7l2.03 15.47-30.67 17.6L.07 19.34c-.13-1.01.41-2.22 1.2-2.67l27.78-16c.8-.45 1.55.01 1.68 1.03z" transform="translate(682.46 104.34)"/><path fill="#FFF" d="M692.76 119.4c.2-.12.4 0 .44.27l1.3 9.93c.03.27-.11.58-.32.7l-7.28 4.18c-.2.12-.4 0-.44-.27l-1.3-9.92c-.03-.26.11-.58.32-.7l7.28-4.19zm11.86-4.4c.12-.08.24 0 .26.15l.2 1.52c.02.15-.06.34-.19.41l-9 5.03c-.12.07-.24 0-.26-.16l-.2-1.5c-.02-.17.07-.36.2-.43l8.99-5.03z" opacity=".5"/><path fill="url(#bQ)" d="M30.48 23.36c.18-.1.35 0 .38.23l.29 2.2c.03.24-.1.51-.28.61L17.8 33.87c-.18.1-.35 0-.38-.23l-.29-2.2c-.03-.22.1-.5.27-.6l13.09-7.48z" opacity=".4" transform="translate(682.46 104.34)"/><path fill="#FFF" d="M702.37 120.37c.09-.04.17 0 .19.12l.2 1.58c.02.1-.04.24-.13.29l-6.27 3.5c-.09.05-.24-.53-.25-.64l-.14-1.05c-.01-.1.05-.24.13-.29l6.27-3.5z" opacity=".5"/><path fill="url(#bR)" d="M38.04 57.62l.93 7.15c.13 1.02-.4 2.22-1.2 2.67L10 83.4c-.8.45-1.55 0-1.69-1.02l-.93-7.16 30.67-17.6z" transform="translate(682.46 104.34)"/><g opacity=".4"><path fill="#004F94" d="M696.22 160.18c.19-.1.37 0 .4.24l.3 2.27c.02.23-.1.52-.29.62l-3.15 1.92c-.18.1-.36 0-.39-.24l-.3-2.26c-.03-.24.1-.52.29-.62l3.14-1.93z"/><path fill="#F01F1F" d="M702.59 142.72c.2-.12.4 0 .42.25l.33 2.47c.03.26-.1.57-.3.68l-1.82 1c-.2.12-.4 0-.42-.25l-.32-2.46a.73.73 0 0 1 .3-.68l1.8-1.01z"/><path fill="#003676" d="M705.34 156.97c.15 1.12-.44 2.46-1.31 2.96-.88.5-1.7.04-1.86-1.12-.15-1.16.44-2.46 1.32-2.96.88-.5 1.7-.04 1.85 1.12z"/><path fill="#FB9E00" d="M694.63 148.96c.14 1.11-.44 2.46-1.32 2.96-.88.5-1.7.04-1.85-1.13-.15-1.16.44-2.46 1.32-2.96.87-.5 1.7-.03 1.85 1.13z"/></g><path fill="#E2E3E8" d="M695.43 153.55l-.12-.93c-.01-.1-.06-.14-.15-.1l-3.05 1.75c-.08.04-.1.17-.1.27l.13.93c0 .09.06.14.14.1l3.05-1.75c.04-.05.11-.18.1-.27zm1.84 12.11l-.12-.92c-.02-.1-.07-.15-.15-.1l-3.05 1.75c-.08.04-.11.17-.1.27l.12.92c.01.1.07.15.15.1l3.05-1.75a.42.42 0 0 0 .1-.27zm6.98-17.31l-.12-.93c0-.09-.06-.14-.15-.1l-3.04 1.75c-.09.04-.11.18-.1.27l.12.93c.01.1.06.14.15.1l3.04-1.75c.04-.04.12-.18.1-.27zm1.65 12.63l-.12-.93c-.01-.09-.06-.14-.15-.1l-3.04 1.75c-.09.04-.12.18-.1.27l.12.93c.01.1.06.14.15.1l3.04-1.75c.04-.04.12-.18.1-.27zm6.88-17.6l-.12-.93c-.02-.1-.07-.14-.15-.1l-3.05 1.75c-.08.04-.11.18-.1.27l.12.93c.01.09.07.14.15.1l3.05-1.75c.04-.05.1-.18.1-.27zm1.65 12.62l-.13-.92c0-.1-.06-.14-.14-.1l-3.05 1.75c-.09.04-.11.18-.1.27l.12.93c.01.1.06.14.15.1l3.05-1.75c.04-.04.1-.18.1-.27z"/><path fill="url(#bS)" d="M29.78 65.73c.15-.09.3 0 .32.2l.25 1.86c.02.2-.08.43-.23.52L19 74.5c-.15.08-.3 0-.33-.2l-.24-1.86c-.02-.2.08-.43.23-.51l11.11-6.21z" transform="translate(682.46 104.34)"/><path fill="#076AD4" d="M712.19 139.5c.14 1.11-.44 2.46-1.32 2.96-.88.5-1.7.03-1.85-1.13-.15-1.16.44-2.46 1.32-2.96.87-.5 1.7-.03 1.85 1.13z" opacity=".5"/><path fill="#B0245B" d="M714.36 153.8l-3.26 1.87 1.1-4.95z" opacity=".5"/></g><path stroke="url(#bT)" stroke-width=".5" d="M21.1.3c.26-.14.5 0 .55.33l1.84 14.13c.04.32-.13.7-.38.85L2.43 27.1c-.25.15-.5 0-.53-.33L.05 12.63c-.04-.33.13-.71.38-.86L21.11.3z" opacity=".4" transform="translate(645.6 159.92)"/><path fill="#FF6482" fill-rule="nonzero" d="M668.3 161.52c.28-.16.55 0 .6.36l1.58 12.17c.05.36-.14.78-.42.94l-20.22 11.69c-.27.16-.54 0-.59-.36l-1.59-12.18c-.04-.36.15-.78.42-.94l20.22-11.68z"/><path fill="url(#bU)" fill-rule="nonzero" d="M28.36.37c.34-.2.66 0 .72.43l2.45 18.8c.06.44-.17.95-.5 1.14L3.5 36.02c-.33.19-.65 0-.71-.44L.33 16.77c-.05-.43.18-.95.51-1.14L28.36.37z" opacity=".1" transform="translate(632.62 115.25)"/><path fill="#191C42" fill-rule="nonzero" d="M662.5 122.16l-28.8 15.57-.4-3.08 28.77-15.81z" opacity=".3"/><path stroke="url(#bV)" stroke-width=".5" d="M28.3.33c.34-.2.67 0 .72.43l2.46 18.8c.05.44-.18.95-.51 1.15L3.45 35.98c-.34.2-.66 0-.72-.43L.28 16.73c-.06-.43.17-.94.5-1.14L28.32.33z" opacity=".4" transform="translate(636.25 116.8)"/><path fill="url(#bW)" fill-rule="nonzero" d="M34.8 1.82c.34-.2.66 0 .72.43l2.45 18.8c.06.44-.17.95-.5 1.14L9.93 37.47c-.33.2-.66 0-.71-.44L6.77 18.22c-.05-.43.18-.94.51-1.14L34.8 1.82z" transform="translate(633.13 116.8)"/><path fill="url(#bX)" fill-rule="nonzero" d="M36.26 7.94L7.46 23.52l-.4-3.09 28.76-15.8z" transform="translate(633.13 116.8)"/><g fill-rule="nonzero" opacity=".4"><path fill="url(#bY)" d="M2.78 2.2c.13.97-.38 2.13-1.14 2.57-.76.43-1.47.03-1.6-.98-.14-1 .38-2.13 1.14-2.56.76-.43 1.47-.03 1.6.97z" opacity=".5" transform="translate(663.77 134.99)"/><path fill="url(#bZ)" d="M4.68 1.17c.12.96-.39 2.13-1.14 2.56-.76.43-1.48.03-1.6-.98C1.8 1.75 2.3.62 3.06.2c.76-.43 1.48-.03 1.6.98z" opacity=".5" transform="translate(663.77 134.99)"/></g><path fill="#FFF" fill-rule="nonzero" d="M654.13 174.21l1.55-.93c.37-.22.68-.26.9-.12.24.13.38.42.43.86a2.23 2.23 0 0 1-1 2.13l-.7.42.2 1.84-.85.51-.53-4.7zm1.66 1.09c.32-.2.46-.46.42-.79-.02-.16-.07-.27-.16-.3-.08-.05-.21-.02-.38.08l-.57.35.1 1 .58-.34zm4.55.22l-.4-.8-1.44.87-.18 1.14-.86.52 1-5.63.67-.4 2.05 3.8-.84.5zm-1.67-1.03l.9-.53-.62-1.23-.28 1.76zm5.21-6.11l-1.05 3.73.2 1.8-.86.52-.2-1.8-1.7-2.1.97-.57 1.03 1.38.63-2.38zM419.5 77.19l-1.28-.75v-8.2l2.53 1.46a4.44 4.44 0 0 1 2.22 3.9c0 1.06-.41 1.73-1.12 1.7l1.3 4-1.46-.84-1.14-3.67-1.05-.6v3zm0-4.25l1.13.65c.64.38 1.02.1 1.02-.71 0-.8-.4-1.54-1.04-1.91l-1.1-.65v2.62zm7.09 1.99a3.82 3.82 0 0 1 1.94 3.11l-1.15-.66a1.6 1.6 0 0 0-.8-1.28c-.45-.26-.75-.16-.75.24 0 .31.2.64.63 1.02l.87.76c.94.83 1.32 1.53 1.32 2.46 0 1.22-.84 1.54-2.06.83a4.06 4.06 0 0 1-2.07-3.2l1.2.7c.07.56.39 1.04.9 1.34.5.29.8.2.8-.2 0-.33-.17-.6-.6-.97l-.85-.77c-.88-.77-1.34-1.65-1.34-2.56 0-1.18.78-1.5 1.96-.82zm3.85 7.76c0-.51.3-.74.68-.52.38.22.68.8.68 1.31 0 .5-.3.74-.68.52-.38-.22-.68-.8-.68-1.31zm7.8-1.26l-.02-.01-1.57.54V80.4l1.59-.55 1.27.74v8.2l-1.27-.73v-6.64zm5.17 4.81l.75.43c.58.35.98.1.98-.57 0-.66-.36-1.3-1-1.68-.59-.34-.98-.1-1.02.6l-1.18-.69c.05-1.49.93-1.97 2.26-1.2a4.2 4.2 0 0 1 2.15 3.44c0 1-.52 1.44-1.27 1.18v.04c.91.63 1.5 1.71 1.5 2.85 0 1.47-1 1.87-2.4 1.05a4.82 4.82 0 0 1-2.36-3.9l1.23.72c.04.71.46 1.42 1.14 1.8.64.38 1.09.16 1.09-.54 0-.75-.42-1.45-1.11-1.85l-.76-.44v-1.24zm4.93 3.56c0-2.64.94-3.72 2.48-2.83 1.53.89 2.47 3.06 2.47 5.7 0 2.66-.93 3.77-2.47 2.88-1.55-.9-2.48-3.09-2.48-5.74zm3.65 2.13c0-1.86-.45-3.16-1.17-3.58-.72-.42-1.18.37-1.18 2.21 0 1.87.45 3.19 1.18 3.61.73.42 1.17-.37 1.17-2.24zm5.61 9.04l1.75-8.86 1.16.67-1.78 8.84zm12.71 5.71v-5.54l-.03-.02-1.66 4.5-.81-.47-1.67-6.43-.03-.02v5.54l-1.14-.66v-8.2l1.48.85 1.75 6.83.03.02 1.74-4.8 1.49.86v8.2zm8.92 1.08c0 2.6-1.14 3.58-2.95 2.53-1.82-1.06-2.96-3.35-2.96-5.96 0-2.62 1.14-3.6 2.96-2.54 1.8 1.06 2.95 3.35 2.95 5.97zm-4.6-2.67c0 1.71.64 3.17 1.65 3.76 1 .58 1.64-.14 1.64-1.85 0-1.73-.64-3.2-1.64-3.77-1-.59-1.65.13-1.65 1.86zm6.47 7.85v-8.2l1.06.61 2.86 7.01.04.02v-5.35l1.23.72v8.2l-1.07-.61-2.86-7.04-.04-.02v5.37zm8.73 5.07v-6.8l-1.8-1.03v-1.42l4.88 2.83V113l-1.8-1.05v6.8zm8.87 5.15v-3.46l-2.76-1.6v3.46l-1.28-.75v-8.2l1.28.74v3.33l2.76 1.6v-3.33l1.28.74v8.21z"/></g></svg>