<svg width="360" height="224" viewBox="0 0 360 224" fill="none" xmlns="http://www.w3.org/2000/svg">
<mask id="mask0" mask-type="alpha" maskUnits="userSpaceOnUse" x="22" y="18" width="318" height="180">
<rect x="22" y="18" width="318" height="180" rx="6" fill="white"/>
</mask>
<g mask="url(#mask0)">
<path opacity="0.5" d="M-29.5 17.0008C113 149.501 131.5 -103.499 119.391 -153.466L-72.6588 -83.3111C-87.3831 -25.3285 -90.4412 -39.6638 -29.5 17.0008Z" stroke="#C4DDF9"/>
<path opacity="0.5" d="M260.984 -38.8099C156.5 143.5 93.5 -24.539 0.815133 64.2446H-1V-41C87.1348 -40.635 262.92 -39.686 260.984 -38.8099Z" stroke="#C4DDF9"/>
<path opacity="0.5" d="M231.834 -61.862C170.783 139.202 68.2079 -26.0788 -2.26586 81.1892L-4.03499 81.5953L-23.5001 -26.5001C62.4825 -45.8612 233.525 -63.149 231.834 -61.862Z" stroke="#C4DDF9"/>
</g>
</svg>
